<svg width="889" height="681" viewBox="0 0 889 681" fill="none" xmlns="http://www.w3.org/2000/svg">
<path fill-rule="evenodd" clip-rule="evenodd" d="M494.76 44.7463C504.869 37.672 516.257 29.7028 535.441 19.3827C573.599 -1.14393 598.12 -2.79469 626.953 4.23648C597.489 9.28285 581.246 17.5178 561.28 27.6406C556.241 30.195 550.966 32.8695 545.181 35.6434C541.661 37.3311 538.254 38.9958 534.923 40.623C511.086 52.2682 491.18 61.9927 462.214 64.518C476.015 57.8637 484.762 51.7426 494.76 44.7463ZM618.052 87.5541C665.016 76.2632 716.454 49.5137 751.43 31.3251C788.634 11.9776 807.211 2.31695 781.961 31.2534C732.974 87.393 712.951 94.8206 618.052 87.5541ZM716.543 104.087C720.826 103.097 724.847 102.166 729.197 101.431C754.877 97.0917 855.846 72.9607 889 34.5185C839.144 98.0723 799.274 127.755 727.655 136.411C656.037 145.067 440.501 97.4762 564.901 107.193C668.229 115.264 695.54 108.946 716.543 104.087ZM63 50C24.5128 155.727 27.1518 189.817 68.5 212.5C50.9993 171.367 57.4793 136.611 62.9738 107.141L63 107C68.5 77.5 68.9989 70.1398 63 50ZM71.0001 236C79.3485 215.725 77.7403 204.34 75.0814 185.517C73.2815 172.775 71.0001 156.625 71.0001 132C93.5163 167.549 94.0001 213 89.5001 236C85.3325 257.301 75.9421 272.618 67.0819 287.071C56.184 304.848 46.0882 321.317 47.5001 346C24.2518 326.889 42.4882 292.084 58.4801 261.563C63.235 252.488 67.7915 243.792 71.0001 236ZM79.5 299C86.6346 337.719 88.6033 380.991 79.5 396C70.3967 411.009 33.3376 474.865 50.5 512C51.2944 481.926 68 450.479 81.9283 424.26C87.4397 413.885 92.5162 404.329 96 396C108.288 366.624 106.498 326.327 79.5 299ZM21.5 409.5C32.3095 395.171 40.5682 386.728 47.8994 379.232C55.1499 371.819 61.4932 365.334 68.5 355C65.2284 377.075 54.9955 391.976 42.7415 409.82L42.7386 409.824C41.0274 412.316 39.2767 414.866 37.5 417.5C34.5784 421.832 31.7692 425.778 29.0862 429.546C18.4537 444.48 9.80412 456.629 4.00001 479C-2.28284 456.705 2.35438e-05 438 21.5 409.5ZM101.481 550.908C100.38 554.152 99.347 557.197 98.5 560.5C93.5 580 66.7762 656.432 27.5 680.5C92.3047 644.501 123 615 133.5 560.5C144 506 102 339.5 108.5 435C113.899 514.323 106.88 535.004 101.481 550.908ZM27.8598 575.144C46.9409 549 75.0032 510.549 87.5 475C92.3126 547.848 84.3723 562.916 27 598.5C-2.57184 616.841 7.5629 602.955 27.8598 575.144ZM83 85.5C116.688 181.303 123.369 228.516 102 295C141.368 231.988 139.968 187.226 83 85.5ZM514.365 77.7306C494.369 86.3226 437.959 82.8957 387.72 74.4594C422.21 102.363 474.743 105.511 513.638 94.2212C524.666 91.0203 537.366 86.2689 551.155 81.1105C586.001 68.0744 627.795 52.4389 667.095 52.6591C619.366 34.2541 534.362 69.1387 514.365 77.7306ZM240.644 65.3801C265.102 68.6722 279.896 70.6635 306.735 63.0035C317.05 60.0595 328.605 55.7989 340.663 51.3528C381.216 36.3993 427.461 19.347 451.389 43.2266C419.224 40.9831 397.278 50.5177 373.588 60.81C354.327 69.1777 333.914 78.0462 305.92 81.493C275.692 85.2148 216.372 83.1985 170.951 59.4962C203.101 60.3267 224.087 63.1514 240.644 65.3801ZM276.163 59.7124C248.37 17.6227 203.978 13.8356 64.2423 48.7353C90.2729 55.41 99.9046 55.1596 138.663 50.6576L138.848 50.6361C177.566 46.1387 223.23 40.8344 276.163 59.7124ZM109.711 69.921C233.309 106.82 294.656 115.09 382.401 95.9755C298.397 133.196 240.016 130.287 109.711 69.921Z" fill="url(#paint0_linear_7_280)"/>
<defs>
<linearGradient id="paint0_linear_7_280" x1="108.697" y1="92.9247" x2="382.004" y2="104.972" gradientUnits="userSpaceOnUse">
<stop stop-color="#FCD34D" stop-opacity="0.4"/>
<stop offset="1" stop-color="#BBF7D0" stop-opacity="0.2"/>
</linearGradient>
</defs>
</svg>
