<svg width="530" height="471" viewBox="0 0 530 471" fill="none" xmlns="http://www.w3.org/2000/svg">
<path d="M324.208 208.962C220.946 278.088 195.901 323.199 253.853 423.491C381.777 329.321 378.651 284.267 324.208 208.962Z" fill="url(#paint0_angular_149_228)" stroke="url(#paint1_linear_149_228)" stroke-width="5"/>
<path d="M251.745 163.202C194.359 81.1662 157.327 61.8694 76.1173 110.852C154.168 212.298 190.876 208.818 251.745 163.202Z" fill="url(#paint2_angular_149_228)" stroke="url(#paint3_linear_149_228)" stroke-width="5"/>
<path d="M326.512 218.314C163.244 457.022 2.47586 175.089 152.881 157.132C303.287 139.176 290.525 215.337 326.512 218.314Z" fill="url(#paint4_radial_149_228)" stroke="url(#paint5_linear_149_228)" stroke-width="3.549"/>
<path d="M326.512 218.314C163.244 457.022 2.47586 175.089 152.881 157.132C303.287 139.176 290.525 215.337 326.512 218.314Z" fill="url(#paint6_radial_149_228)" stroke="url(#paint7_linear_149_228)" stroke-width="3.549"/>
<path d="M316.786 200.865C52.5728 132.689 226.004 -66.6531 300.029 47.7959C374.054 162.245 305.174 171.621 316.786 200.865Z" fill="url(#paint8_radial_149_228)" stroke="url(#paint9_linear_149_228)" stroke-width="3.549"/>
<path d="M316.786 200.865C52.5728 132.689 226.004 -66.6531 300.029 47.7959C374.054 162.245 305.174 171.621 316.786 200.865Z" fill="url(#paint10_linear_149_228)" stroke="url(#paint11_linear_149_228)" stroke-width="3.549"/>
<path d="M297.675 198.181C280.721 -74.159 523.955 29.0522 438.04 134.867C352.125 240.683 321.888 178.088 297.675 198.181Z" fill="url(#paint12_radial_149_228)" stroke="url(#paint13_linear_149_228)" stroke-width="3.549"/>
<path d="M297.675 198.181C280.721 -74.159 523.955 29.0522 438.04 134.867C352.125 240.683 321.888 178.088 297.675 198.181Z" fill="url(#paint14_linear_149_228)" stroke="url(#paint15_linear_149_228)" stroke-width="3.549"/>
<path d="M296.206 199.809C528.984 49.3495 557.895 313.263 421.698 290.906C285.501 268.549 325.975 210.955 296.206 199.809Z" fill="url(#paint16_radial_149_228)" stroke="url(#paint17_linear_149_228)" stroke-width="3.549"/>
<path d="M296.206 199.809C528.984 49.3495 557.895 313.263 421.698 290.906C285.501 268.549 325.975 210.955 296.206 199.809Z" fill="url(#paint18_linear_149_228)" stroke="url(#paint19_linear_149_228)" stroke-width="3.549"/>
<path d="M296.768 191.544C322.052 180.576 334.84 166.235 342.319 143.406M351.819 89.9601C349.551 111.848 346.955 129.257 342.319 143.406M342.319 143.406C357.665 119.072 368.103 112.382 389.368 110.576M342.319 143.406C346.928 112.291 340.622 98.5441 313.757 84.343" stroke="url(#paint20_linear_149_228)" stroke-width="3.549"/>
<path d="M294.87 187.708C504.381 306.473 276.557 463.394 253.131 338.371C229.705 213.347 294.368 218.184 294.87 187.708Z" fill="url(#paint21_radial_149_228)" stroke="url(#paint22_linear_149_228)" stroke-width="3.549"/>
<path d="M294.87 187.708C504.381 306.473 276.557 463.394 253.131 338.371C229.705 213.347 294.368 218.184 294.87 187.708Z" fill="url(#paint23_radial_149_228)" stroke="url(#paint24_linear_149_228)" stroke-width="3.549"/>
<ellipse cx="396.556" cy="112.385" rx="12.4215" ry="12.4215" transform="rotate(60.0286 396.556 112.385)" fill="url(#paint25_radial_149_228)" fill-opacity="0.7"/>
<ellipse cx="323.127" cy="211.677" rx="4.96859" ry="4.9686" transform="rotate(60.0286 323.127 211.677)" fill="url(#paint26_radial_149_228)" fill-opacity="0.7"/>
<ellipse cx="11.5605" cy="10.8082" rx="11.5605" ry="10.8082" transform="matrix(-0.988481 -0.151342 0.151344 -0.988481 309.393 204.957)" fill="url(#paint27_radial_149_228)"/>
<ellipse cx="315.922" cy="170.767" rx="4.96859" ry="4.9686" transform="rotate(60.0286 315.922 170.767)" fill="url(#paint28_radial_149_228)" fill-opacity="0.7"/>
<ellipse cx="334.482" cy="188.742" rx="4.96859" ry="4.9686" transform="rotate(60.0286 334.482 188.742)" fill="url(#paint29_radial_149_228)" fill-opacity="0.7"/>
<ellipse cx="375.033" cy="202.228" rx="4.96859" ry="4.9686" transform="rotate(60.0286 375.033 202.228)" fill="url(#paint30_radial_149_228)" fill-opacity="0.7"/>
<ellipse cx="355.173" cy="189.1" rx="4.96859" ry="4.9686" transform="rotate(60.0286 355.173 189.1)" fill="url(#paint31_radial_149_228)" fill-opacity="0.7"/>
<ellipse cx="286.725" cy="134.346" rx="4.96859" ry="4.9686" transform="rotate(60.0286 286.725 134.346)" fill="url(#paint32_radial_149_228)" fill-opacity="0.7"/>
<ellipse cx="281.99" cy="161.657" rx="4.96859" ry="4.9686" transform="rotate(60.0286 281.99 161.657)" fill="url(#paint33_radial_149_228)" fill-opacity="0.7"/>
<ellipse cx="377.41" cy="135.308" rx="4.96859" ry="4.9686" transform="rotate(60.0286 377.41 135.308)" fill="url(#paint34_radial_149_228)" fill-opacity="0.7"/>
<ellipse cx="384.144" cy="168.296" rx="4.96859" ry="4.9686" transform="rotate(60.0286 384.144 168.296)" fill="url(#paint35_radial_149_228)" fill-opacity="0.7"/>
<ellipse cx="321.844" cy="109.996" rx="4.96859" ry="4.9686" transform="rotate(60.0286 321.844 109.996)" fill="url(#paint36_radial_149_228)" fill-opacity="0.7"/>
<ellipse cx="314.508" cy="147.002" rx="4.96859" ry="4.9686" transform="rotate(60.0286 314.508 147.002)" fill="url(#paint37_radial_149_228)" fill-opacity="0.7"/>
<ellipse cx="356.955" cy="165.615" rx="4.96859" ry="4.9686" transform="rotate(60.0286 356.955 165.615)" fill="url(#paint38_radial_149_228)" fill-opacity="0.7"/>
<ellipse cx="355.776" cy="119.106" rx="4.96859" ry="4.9686" transform="rotate(60.0286 355.776 119.106)" fill="url(#paint39_radial_149_228)" fill-opacity="0.7"/>
<ellipse cx="355.533" cy="90.9778" rx="12.4215" ry="12.4215" transform="rotate(60.0286 355.533 90.9778)" fill="url(#paint40_radial_149_228)" fill-opacity="0.7"/>
<ellipse cx="305.758" cy="82.8105" rx="12.4215" ry="12.4215" transform="rotate(60.0286 305.758 82.8105)" fill="url(#paint41_radial_149_228)" fill-opacity="0.7"/>
<defs>
<radialGradient id="paint0_angular_149_228" cx="0" cy="0" r="1" gradientUnits="userSpaceOnUse" gradientTransform="translate(327.184 209.796) rotate(-51.7403) scale(33.4688 36.1019)">
<stop offset="0.247356" stop-color="#8EB172"/>
<stop offset="0.447917" stop-color="#102102"/>
<stop offset="0.614511" stop-color="#6B8855"/>
</radialGradient>
<linearGradient id="paint1_linear_149_228" x1="393.436" y1="325.7" x2="265.131" y2="258.66" gradientUnits="userSpaceOnUse">
<stop stop-color="#477324"/>
<stop offset="0.959375" stop-color="#122107"/>
</linearGradient>
<radialGradient id="paint2_angular_149_228" cx="0" cy="0" r="1" gradientUnits="userSpaceOnUse" gradientTransform="translate(251.094 165.625) rotate(36.83) scale(27.0284 29.4855)">
<stop offset="0.247356" stop-color="#8EB172"/>
<stop offset="0.447917" stop-color="#102102"/>
<stop offset="0.614511" stop-color="#6B8855"/>
</radialGradient>
<linearGradient id="paint3_linear_149_228" x1="157.236" y1="221.65" x2="209.051" y2="115.708" gradientUnits="userSpaceOnUse">
<stop stop-color="#477324"/>
<stop offset="0.959375" stop-color="#122107"/>
</linearGradient>
<radialGradient id="paint4_radial_149_228" cx="0" cy="0" r="1" gradientUnits="userSpaceOnUse" gradientTransform="translate(150.547 239.916) rotate(-11.7255) scale(170.028 169.543)">
<stop stop-color="#F39958" stop-opacity="0.4"/>
<stop offset="0.594791" stop-color="#F3587E"/>
</radialGradient>
<linearGradient id="paint5_linear_149_228" x1="94.1891" y1="216.138" x2="328.912" y2="230.371" gradientUnits="userSpaceOnUse">
<stop stop-color="#480707" stop-opacity="0.4"/>
<stop offset="1" stop-color="#674C4C" stop-opacity="0.4"/>
</linearGradient>
<radialGradient id="paint6_radial_149_228" cx="0" cy="0" r="1" gradientUnits="userSpaceOnUse" gradientTransform="translate(294.327 197.969) rotate(168.814) scale(275.528 274.741)">
<stop offset="0.105208" stop-color="#3E1619"/>
<stop offset="0.573958" stop-color="#953641" stop-opacity="0.6"/>
<stop offset="1" stop-color="#F39958" stop-opacity="0"/>
</radialGradient>
<linearGradient id="paint7_linear_149_228" x1="94.1891" y1="216.138" x2="328.912" y2="230.371" gradientUnits="userSpaceOnUse">
<stop stop-color="#480707" stop-opacity="0.4"/>
<stop offset="1" stop-color="#674C4C" stop-opacity="0.4"/>
</linearGradient>
<radialGradient id="paint8_radial_149_228" cx="0" cy="0" r="1" gradientUnits="userSpaceOnUse" gradientTransform="translate(247.825 71.1542) rotate(62.9381) scale(138.454 134.538)">
<stop stop-color="#F39958" stop-opacity="0.5"/>
<stop offset="1" stop-color="#F3587E"/>
</radialGradient>
<linearGradient id="paint9_linear_149_228" x1="227.531" y1="16.4325" x2="275.044" y2="213.693" gradientUnits="userSpaceOnUse">
<stop stop-color="#480707" stop-opacity="0.4"/>
<stop offset="1" stop-color="#674C4C" stop-opacity="0.4"/>
</linearGradient>
<linearGradient id="paint10_linear_149_228" x1="242.337" y1="19.0119" x2="249.825" y2="184.268" gradientUnits="userSpaceOnUse">
<stop stop-color="#F39958" stop-opacity="0"/>
<stop offset="1" stop-color="#3D1518"/>
</linearGradient>
<linearGradient id="paint11_linear_149_228" x1="227.531" y1="16.4325" x2="275.044" y2="213.693" gradientUnits="userSpaceOnUse">
<stop stop-color="#480707" stop-opacity="0.4"/>
<stop offset="1" stop-color="#674C4C" stop-opacity="0.4"/>
</linearGradient>
<radialGradient id="paint12_radial_149_228" cx="0" cy="0" r="1" gradientUnits="userSpaceOnUse" gradientTransform="translate(385.45 95.92) rotate(131.442) scale(126.193 122.624)">
<stop stop-color="#F39958" stop-opacity="0.8"/>
<stop offset="1" stop-color="#F3587E"/>
</radialGradient>
<linearGradient id="paint13_linear_149_228" x1="445.423" y1="56.2218" x2="272.556" y2="162.46" gradientUnits="userSpaceOnUse">
<stop stop-color="#480707" stop-opacity="0.4"/>
<stop offset="1" stop-color="#674C4C" stop-opacity="0.4"/>
</linearGradient>
<linearGradient id="paint14_linear_149_228" x1="397.094" y1="81.3492" x2="285.115" y2="169.053" gradientUnits="userSpaceOnUse">
<stop stop-color="#F39958" stop-opacity="0"/>
<stop offset="1" stop-color="#1F0204"/>
</linearGradient>
<linearGradient id="paint15_linear_149_228" x1="445.423" y1="56.2218" x2="272.556" y2="162.46" gradientUnits="userSpaceOnUse">
<stop stop-color="#480707" stop-opacity="0.4"/>
<stop offset="1" stop-color="#674C4C" stop-opacity="0.4"/>
</linearGradient>
<radialGradient id="paint16_radial_149_228" cx="0" cy="0" r="1" gradientUnits="userSpaceOnUse" gradientTransform="translate(408.281 227.296) rotate(-165.031) scale(106.81 103.483)">
<stop stop-color="#F39958" stop-opacity="0.3"/>
<stop offset="1" stop-color="#F3587E"/>
</radialGradient>
<linearGradient id="paint17_linear_149_228" x1="494.993" y1="258.184" x2="316.605" y2="157.951" gradientUnits="userSpaceOnUse">
<stop stop-color="#480707" stop-opacity="0.4"/>
<stop offset="1" stop-color="#674C4C" stop-opacity="0.4"/>
</linearGradient>
<linearGradient id="paint18_linear_149_228" x1="497.861" y1="238.323" x2="320.275" y2="156.398" gradientUnits="userSpaceOnUse">
<stop offset="0.36181" stop-color="#F39958" stop-opacity="0"/>
<stop offset="0.953271" stop-color="#1F030A"/>
</linearGradient>
<linearGradient id="paint19_linear_149_228" x1="494.993" y1="258.184" x2="316.605" y2="157.951" gradientUnits="userSpaceOnUse">
<stop stop-color="#480707" stop-opacity="0.4"/>
<stop offset="1" stop-color="#674C4C" stop-opacity="0.4"/>
</linearGradient>
<linearGradient id="paint20_linear_149_228" x1="309.942" y1="185.785" x2="333.469" y2="93.6345" gradientUnits="userSpaceOnUse">
<stop offset="0.115625" stop-color="#480707"/>
<stop offset="0.573958" stop-color="#70440C"/>
<stop offset="0.917708" stop-color="#E18F8F"/>
</linearGradient>
<radialGradient id="paint21_radial_149_228" cx="0" cy="0" r="1" gradientUnits="userSpaceOnUse" gradientTransform="translate(307.071 336.573) rotate(-93.7479) scale(141.793 141.619)">
<stop stop-color="#F39958"/>
<stop offset="0.57954" stop-color="#F3587E" stop-opacity="0.7"/>
</radialGradient>
<linearGradient id="paint22_linear_149_228" x1="305.937" y1="383.137" x2="299.74" y2="184.919" gradientUnits="userSpaceOnUse">
<stop stop-color="#480707" stop-opacity="0.4"/>
<stop offset="1" stop-color="#674C4C" stop-opacity="0.4"/>
</linearGradient>
<radialGradient id="paint23_radial_149_228" cx="0" cy="0" r="1" gradientUnits="userSpaceOnUse" gradientTransform="translate(297.25 380.641) rotate(-90.0091) scale(174.1 173.886)">
<stop stop-color="#F39958" stop-opacity="0.06"/>
<stop offset="0.497465" stop-color="#310E13" stop-opacity="0.3"/>
<stop offset="1" stop-color="#2A090F"/>
</radialGradient>
<linearGradient id="paint24_linear_149_228" x1="305.937" y1="383.137" x2="299.74" y2="184.919" gradientUnits="userSpaceOnUse">
<stop stop-color="#480707" stop-opacity="0.4"/>
<stop offset="1" stop-color="#674C4C" stop-opacity="0.4"/>
</linearGradient>
<radialGradient id="paint25_radial_149_228" cx="0" cy="0" r="1" gradientUnits="userSpaceOnUse" gradientTransform="translate(398.331 114.16) rotate(-63.435) scale(11.9037 11.9037)">
<stop stop-color="#E3C0C1"/>
<stop offset="1" stop-color="#5A0809"/>
</radialGradient>
<radialGradient id="paint26_radial_149_228" cx="0" cy="0" r="1" gradientUnits="userSpaceOnUse" gradientTransform="translate(322.417 212.387) rotate(-50.1945) scale(5.54371 5.54371)">
<stop offset="0.188541" stop-color="#E32A58" stop-opacity="0.4"/>
<stop offset="0.422916" stop-color="#6A3616"/>
<stop offset="0.865625" stop-color="#380708"/>
</radialGradient>
<radialGradient id="paint27_radial_149_228" cx="0" cy="0" r="1" gradientUnits="userSpaceOnUse" gradientTransform="translate(9.90903 12.3523) rotate(-48.2882) scale(12.4102 12.534)">
<stop offset="0.235416" stop-color="#4F2530"/>
<stop offset="0.527083" stop-color="#672E09"/>
<stop offset="0.980208" stop-color="#390506"/>
</radialGradient>
<radialGradient id="paint28_radial_149_228" cx="0" cy="0" r="1" gradientUnits="userSpaceOnUse" gradientTransform="translate(315.212 171.477) rotate(-50.1945) scale(5.54371 5.54371)">
<stop offset="0.188541" stop-color="#E32A58" stop-opacity="0.4"/>
<stop offset="0.422916" stop-color="#6A3616"/>
<stop offset="0.865625" stop-color="#380708"/>
</radialGradient>
<radialGradient id="paint29_radial_149_228" cx="0" cy="0" r="1" gradientUnits="userSpaceOnUse" gradientTransform="translate(333.772 189.452) rotate(-50.1945) scale(5.54371 5.54371)">
<stop offset="0.188541" stop-color="#E32A58" stop-opacity="0.4"/>
<stop offset="0.422916" stop-color="#6A3616"/>
<stop offset="0.865625" stop-color="#380708"/>
</radialGradient>
<radialGradient id="paint30_radial_149_228" cx="0" cy="0" r="1" gradientUnits="userSpaceOnUse" gradientTransform="translate(374.324 202.938) rotate(-50.1945) scale(5.54371 5.54371)">
<stop offset="0.235416" stop-color="#EA879F"/>
<stop offset="0.527083" stop-color="#B3581E"/>
<stop offset="0.980208" stop-color="#7F2527"/>
</radialGradient>
<radialGradient id="paint31_radial_149_228" cx="0" cy="0" r="1" gradientUnits="userSpaceOnUse" gradientTransform="translate(354.463 189.81) rotate(-50.1945) scale(5.54371 5.54371)">
<stop offset="0.235416" stop-color="#F3587E"/>
<stop offset="0.527083" stop-color="#853808"/>
<stop offset="0.980208" stop-color="#531112"/>
</radialGradient>
<radialGradient id="paint32_radial_149_228" cx="0" cy="0" r="1" gradientUnits="userSpaceOnUse" gradientTransform="translate(286.015 135.055) rotate(-50.1945) scale(5.54371 5.54371)">
<stop offset="0.235416" stop-color="#F3587E"/>
<stop offset="0.527083" stop-color="#853808"/>
<stop offset="0.980208" stop-color="#531112"/>
</radialGradient>
<radialGradient id="paint33_radial_149_228" cx="0" cy="0" r="1" gradientUnits="userSpaceOnUse" gradientTransform="translate(281.281 162.367) rotate(-50.1945) scale(5.54371 5.54371)">
<stop offset="0.188541" stop-color="#E32A58" stop-opacity="0.4"/>
<stop offset="0.422916" stop-color="#6A3616"/>
<stop offset="0.865625" stop-color="#380708"/>
</radialGradient>
<radialGradient id="paint34_radial_149_228" cx="0" cy="0" r="1" gradientUnits="userSpaceOnUse" gradientTransform="translate(376.701 136.018) rotate(-50.1945) scale(5.54371 5.54371)">
<stop offset="0.235416" stop-color="#EA879F"/>
<stop offset="0.527083" stop-color="#B3581E"/>
<stop offset="0.980208" stop-color="#7F2527"/>
</radialGradient>
<radialGradient id="paint35_radial_149_228" cx="0" cy="0" r="1" gradientUnits="userSpaceOnUse" gradientTransform="translate(383.434 169.006) rotate(-50.1945) scale(5.54371 5.54371)">
<stop offset="0.235416" stop-color="#EA879F"/>
<stop offset="0.527083" stop-color="#B3581E"/>
<stop offset="0.980208" stop-color="#7F2527"/>
</radialGradient>
<radialGradient id="paint36_radial_149_228" cx="0" cy="0" r="1" gradientUnits="userSpaceOnUse" gradientTransform="translate(321.135 110.706) rotate(-50.1945) scale(5.54371 5.54371)">
<stop offset="0.235416" stop-color="#EA879F"/>
<stop offset="0.527083" stop-color="#B3581E"/>
<stop offset="0.980208" stop-color="#7F2527"/>
</radialGradient>
<radialGradient id="paint37_radial_149_228" cx="0" cy="0" r="1" gradientUnits="userSpaceOnUse" gradientTransform="translate(313.798 147.711) rotate(-50.1945) scale(5.54371 5.54371)">
<stop offset="0.235416" stop-color="#F3587E"/>
<stop offset="0.527083" stop-color="#853808"/>
<stop offset="0.980208" stop-color="#531112"/>
</radialGradient>
<radialGradient id="paint38_radial_149_228" cx="0" cy="0" r="1" gradientUnits="userSpaceOnUse" gradientTransform="translate(356.245 166.324) rotate(-50.1945) scale(5.54371 5.54371)">
<stop offset="0.235416" stop-color="#F3587E"/>
<stop offset="0.527083" stop-color="#853808"/>
<stop offset="0.980208" stop-color="#531112"/>
</radialGradient>
<radialGradient id="paint39_radial_149_228" cx="0" cy="0" r="1" gradientUnits="userSpaceOnUse" gradientTransform="translate(355.066 119.816) rotate(-50.1945) scale(5.54371 5.54371)">
<stop offset="0.235416" stop-color="#EA879F"/>
<stop offset="0.527083" stop-color="#B3581E"/>
<stop offset="0.980208" stop-color="#7F2527"/>
</radialGradient>
<radialGradient id="paint40_radial_149_228" cx="0" cy="0" r="1" gradientUnits="userSpaceOnUse" gradientTransform="translate(357.307 92.7523) rotate(-63.435) scale(11.9037 11.9037)">
<stop stop-color="#E3C0C1"/>
<stop offset="1" stop-color="#400809"/>
</radialGradient>
<radialGradient id="paint41_radial_149_228" cx="0" cy="0" r="1" gradientUnits="userSpaceOnUse" gradientTransform="translate(307.533 84.585) rotate(-63.435) scale(11.9037 11.9037)">
<stop stop-color="#F28C8E"/>
<stop offset="1" stop-color="#451314"/>
</radialGradient>
</defs>
</svg>
