<svg width="61" height="80" viewBox="0 0 61 80" fill="none" xmlns="http://www.w3.org/2000/svg">
<path d="M59.5115 25.6234C30.4811 18.4447 -12.7161 26.169 8.08311 17.9825C28.8823 9.79594 35.2408 10.5829 59.5115 25.6234Z" fill="url(#paint0_linear_85_155)" stroke="#FFFBEB"/>
<path d="M2.6394 53.9117C31.6697 61.0903 74.867 53.3661 54.0678 61.5526C33.2686 69.7391 26.9101 68.9522 2.6394 53.9117Z" fill="url(#paint1_linear_85_155)" stroke="#FFFBEB"/>
<path d="M59.571 47.5261C52.4826 25.8165 40.4657 24.1322 2.12595 43.1789C9.12362 46.4828 11.7427 46.2907 22.3201 43.7006L22.3706 43.6882C32.9373 41.1006 45.3994 38.0489 59.571 47.5261Z" fill="url(#paint2_linear_85_155)" stroke="#FFFBEB"/>
<defs>
<linearGradient id="paint0_linear_85_155" x1="53.6853" y1="35.7424" x2="8.93515" y2="9.97677" gradientUnits="userSpaceOnUse">
<stop stop-color="#665009"/>
<stop offset="0.511458" stop-color="#1D4ED8"/>
<stop offset="1" stop-color="#375D44"/>
</linearGradient>
<linearGradient id="paint1_linear_85_155" x1="8.46556" y1="43.7927" x2="53.2157" y2="69.5583" gradientUnits="userSpaceOnUse">
<stop stop-color="#665009"/>
<stop offset="0.511458" stop-color="#1D4ED8"/>
<stop offset="1" stop-color="#375D44"/>
</linearGradient>
<linearGradient id="paint2_linear_85_155" x1="2.37543" y1="37.5195" x2="59.9003" y2="40.0553" gradientUnits="userSpaceOnUse">
<stop stop-color="#665009"/>
<stop offset="0.511458" stop-color="#1D4ED8"/>
<stop offset="1" stop-color="#375D44"/>
</linearGradient>
</defs>
</svg>
