<svg width="136" height="631" viewBox="0 0 136 631" fill="none" xmlns="http://www.w3.org/2000/svg">
<path d="M98.5 510.5C103.5 491 115 480.5 108.5 385C102 289.5 144 456 133.5 510.5C123 565 92.3047 594.501 27.5 630.5C66.7762 606.432 93.5 530 98.5 510.5Z" fill="url(#paint0_linear_5_160)"/>
<path d="M87.5 425C61.7101 498.363 -30.3722 584.084 27 548.5C84.3722 512.916 92.3126 497.848 87.5 425Z" fill="url(#paint1_linear_5_160)"/>
<path d="M21.5 359.5C43 331 54.4084 325.783 68.5 305C64.7713 330.159 52 346 37.5 367.5C23 389 11.2687 400.984 4.00001 429C-2.28285 406.705 1.90735e-05 388 21.5 359.5Z" fill="url(#paint2_linear_5_160)"/>
<path d="M79.5 346C88.6033 330.991 86.6346 287.719 79.5 249C106.498 276.327 108.288 316.624 96 346C83.7122 375.376 51.6088 420.026 50.5 462C33.3376 424.865 70.3967 361.009 79.5 346Z" fill="url(#paint3_linear_5_160)"/>
<path d="M71 186C85 152 71 143 71 82C93.5163 117.549 94.0001 163 89.5 186C80.2065 233.5 44.9403 251.249 47.5001 296C17.3394 271.207 57.0001 220 71 186Z" fill="url(#paint4_linear_5_160)"/>
<path d="M68.5 162.5C27.1518 139.817 24.5128 105.727 63 0C68.9989 20.1397 68.5 27.5 63 57L62.9738 57.1409C57.4793 86.6108 50.9993 121.367 68.5 162.5Z" fill="url(#paint5_linear_5_160)"/>
<path d="M83 35.5C116.688 131.303 123.369 178.516 102 245C141.368 181.988 139.968 137.226 83 35.5Z" fill="url(#paint6_linear_5_160)"/>
<defs>
<linearGradient id="paint0_linear_5_160" x1="81.3471" y1="356.018" x2="81.3471" y2="630.5" gradientUnits="userSpaceOnUse">
<stop stop-color="#FDE68A" stop-opacity="0.4"/>
<stop offset="1" stop-color="#739E82" stop-opacity="0.2"/>
</linearGradient>
<linearGradient id="paint1_linear_5_160" x1="48.5943" y1="425" x2="48.5943" y2="556.812" gradientUnits="userSpaceOnUse">
<stop stop-color="#FDE68A" stop-opacity="0.4"/>
<stop offset="1" stop-color="#739E82" stop-opacity="0.2"/>
</linearGradient>
<linearGradient id="paint2_linear_5_160" x1="34.7218" y1="305" x2="34.7218" y2="429" gradientUnits="userSpaceOnUse">
<stop stop-color="#FDE68A" stop-opacity="0.4"/>
<stop offset="1" stop-color="#739E82" stop-opacity="0.2"/>
</linearGradient>
<linearGradient id="paint3_linear_5_160" x1="74.6602" y1="249" x2="74.6602" y2="462" gradientUnits="userSpaceOnUse">
<stop stop-color="#FDE68A" stop-opacity="0.4"/>
<stop offset="1" stop-color="#739E82" stop-opacity="0.2"/>
</linearGradient>
<linearGradient id="paint4_linear_5_160" x1="64.0994" y1="82" x2="64.0994" y2="296" gradientUnits="userSpaceOnUse">
<stop stop-color="#FDE68A" stop-opacity="0.4"/>
<stop offset="1" stop-color="#739E82" stop-opacity="0.2"/>
</linearGradient>
<linearGradient id="paint5_linear_5_160" x1="52.117" y1="0" x2="52.117" y2="162.5" gradientUnits="userSpaceOnUse">
<stop stop-color="#FDE68A" stop-opacity="0.4"/>
<stop offset="1" stop-color="#739E82" stop-opacity="0.2"/>
</linearGradient>
<linearGradient id="paint6_linear_5_160" x1="106.017" y1="35.5" x2="106.017" y2="245" gradientUnits="userSpaceOnUse">
<stop stop-color="#FDE68A" stop-opacity="0.4"/>
<stop offset="1" stop-color="#739E82" stop-opacity="0.2"/>
</linearGradient>
</defs>
</svg>
