<svg width="546" height="533" viewBox="0 0 546 533" fill="none" xmlns="http://www.w3.org/2000/svg">
<ellipse cx="273" cy="266.5" rx="273" ry="266.5" fill="url(#paint0_angular_7_306)"/>
<path d="M273.908 308.94C224.763 336.829 165.09 322.84 140.224 279.023C115.358 235.207 133.947 176.803 183.092 148.913C232.236 121.023 291.909 135.013 316.775 178.83C341.641 222.646 323.052 281.05 273.908 308.94Z" fill="#D9D9D9" stroke="black" stroke-width="10"/>
<path d="M224.426 205.16C232.405 223.294 236.203 223.029 247.986 228.722C259.769 234.415 277.16 234.65 282.424 219.54C287.687 204.431 273.629 191.591 273.629 191.591C263.83 181.575 254.827 178.687 243.453 177.902C232.078 177.116 216.448 187.025 224.426 205.16Z" stroke="black" stroke-width="10"/>
<path d="M248.917 246.048C238.835 223.879 234.101 224.131 219.369 217.001C204.636 209.872 182.953 209.269 176.504 227.523C170.055 245.778 187.678 261.628 187.678 261.628C199.97 273.972 211.215 277.643 225.402 278.805C239.588 279.967 259 268.218 248.917 246.048Z" stroke="black" stroke-width="10"/>
<defs>
<radialGradient id="paint0_angular_7_306" cx="0" cy="0" r="1" gradientUnits="userSpaceOnUse" gradientTransform="translate(273 266.5) rotate(72.633) scale(262.989 269.403)">
<stop offset="0.113165" stop-color="#480020"/>
<stop offset="0.380208" stop-color="#6B6B6B" stop-opacity="0.938393"/>
<stop offset="0.664675" stop-color="#90305A"/>
</radialGradient>
</defs>
</svg>
