<svg width="309" height="568" viewBox="0 0 309 568" fill="none" xmlns="http://www.w3.org/2000/svg">
<path d="M153.523 335.581C152.086 337.553 150.602 339.106 149.003 340.265C135.462 356.447 102.973 396.631 102.973 396.631C84.1159 394.586 79.0418 389.724 79.5731 374.581C59.1731 374.581 56.7523 372.074 68.3231 359.581C38.3231 362.881 41.6909 356.603 63.5231 343.531C-8.77683 348.331 36.6971 297.702 82.8731 319.531C122.962 338.483 138.475 347.9 149.003 340.265C154.086 334.192 156.499 331.499 153.523 335.581Z" fill="url(#paint0_linear_6_194)" stroke="#59260A" stroke-width="1.5"/>
<path d="M184.723 493.231C97.5731 484.381 79.4231 499.831 118.723 496.381L184.723 493.231Z" fill="url(#paint1_linear_6_194)" stroke="#B25622" stroke-width="1.5"/>
<path d="M120.673 496.381C165.073 488.281 204.523 490.081 204.523 490.081L229.573 496.381C229.573 496.381 163.573 512.581 122.623 512.581C81.6732 512.581 76.2731 504.481 120.673 496.381Z" fill="url(#paint2_linear_6_194)" stroke="#AA8239" stroke-width="1.5"/>
<path d="M121.873 512.131C81.9943 526.618 144.223 525.331 230.773 499.081L121.873 512.131Z" fill="url(#paint3_linear_6_194)" stroke="#B25622" stroke-width="1.5"/>
<path d="M212.173 512.881C141.523 507.181 122.923 533.731 161.923 522.931L212.173 512.881Z" fill="url(#paint4_linear_6_194)" stroke="#B2661B" stroke-width="1.5"/>
<path d="M162.823 522.931C206.023 507.031 208.273 513.781 208.273 513.781L226.573 522.931C226.573 522.931 203.923 546.031 164.473 547.681C125.023 549.331 119.623 538.831 162.823 522.931Z" fill="url(#paint5_linear_6_194)" stroke="#B25622" stroke-width="1.5"/>
<path d="M242.623 515.281C232.085 503.624 230.15 496.339 231.523 482.431H205.573C209.593 508.866 207.02 523.478 166.573 547.981C130.704 563.855 126.373 574.381 215.623 561.181C304.873 547.981 300.214 519.613 242.623 515.281Z" fill="url(#paint6_linear_6_194)" stroke="#B2661B" stroke-width="1.5"/>
<path fill-rule="evenodd" clip-rule="evenodd" d="M206.623 349.981C196.423 338.731 196.558 309.832 212.623 284.431L172.573 288.481L149.32 323.611C149.174 323.748 149.025 323.888 148.873 324.031C144.751 327.925 140.538 331.713 136.359 335.47C110.273 358.921 85.5259 381.169 92.7731 420.481C93.6048 410.391 94.2795 406.725 95.9231 404.431L95.9336 404.417C101.388 474.778 125.483 487.698 196.423 475.381C201.674 461.503 206.441 435.958 209.028 411.426C224.825 443.272 254.923 496.307 274.423 482.881C301.873 463.981 327.591 390.004 287.323 352.831C287.761 374.797 277.235 384.158 271.176 389.548C269.841 390.735 268.723 391.73 267.986 392.624C270.255 388.875 275.578 377.511 264.073 372.481C270.459 386.766 255.259 395.44 212.173 411.481L209.469 407.024C212.013 380.296 211.811 355.702 206.623 349.981Z" fill="url(#paint7_linear_6_194)"/>
<path d="M212.623 284.431L213.257 284.832L214.08 283.53L212.548 283.685L212.623 284.431ZM206.623 349.981L207.179 349.477L206.623 349.981ZM172.573 288.481L172.498 287.735L172.144 287.771L171.948 288.067L172.573 288.481ZM149.32 323.611L149.832 324.159L149.896 324.099L149.945 324.025L149.32 323.611ZM148.873 324.031L148.358 323.486L148.358 323.486L148.873 324.031ZM136.359 335.47L135.857 334.912L136.359 335.47ZM92.7731 420.481L92.0356 420.617L93.5206 420.543L92.7731 420.481ZM95.9231 404.431L95.3267 403.976L95.3199 403.985L95.3134 403.994L95.9231 404.431ZM95.9336 404.417L96.6814 404.359L96.5294 402.399L95.3372 403.962L95.9336 404.417ZM196.423 475.381L196.551 476.12L196.973 476.047L197.125 475.646L196.423 475.381ZM209.028 411.426L209.699 411.092L208.552 408.78L208.282 411.347L209.028 411.426ZM274.423 482.881L273.998 482.263L274.423 482.881ZM287.323 352.831L287.832 352.28L286.538 351.086L286.573 352.846L287.323 352.831ZM271.176 389.548L271.674 390.108L271.176 389.548ZM267.986 392.624L267.344 392.236L268.565 393.101L267.986 392.624ZM264.073 372.481L264.374 371.794L262.597 371.017L263.388 372.787L264.073 372.481ZM212.173 411.481L211.532 411.87L211.854 412.4L212.435 412.184L212.173 411.481ZM209.469 407.024L208.723 406.953L208.699 407.2L208.828 407.413L209.469 407.024ZM211.989 284.03C203.891 296.835 199.801 310.531 199.025 322.464C198.252 334.364 200.772 344.644 206.067 350.485L207.179 349.477C202.274 344.068 199.761 334.274 200.522 322.561C201.281 310.882 205.291 297.428 213.257 284.832L211.989 284.03ZM172.649 289.227L212.699 285.177L212.548 283.685L172.498 287.735L172.649 289.227ZM149.945 324.025L173.199 288.895L171.948 288.067L148.694 323.197L149.945 324.025ZM149.388 324.576C149.539 324.434 149.687 324.295 149.832 324.159L148.808 323.063C148.661 323.201 148.511 323.341 148.358 323.486L149.388 324.576ZM136.86 336.028C141.038 332.272 145.259 328.478 149.388 324.576L148.358 323.486C144.244 327.372 140.038 331.154 135.857 334.912L136.86 336.028ZM93.5107 420.345C86.3494 381.499 110.723 359.525 136.86 336.028L135.857 334.912C109.823 358.318 84.7023 380.839 92.0356 420.617L93.5107 420.345ZM95.3134 403.994C94.4026 405.266 93.7952 406.875 93.3074 409.39C92.8206 411.899 92.4415 415.375 92.0257 420.419L93.5206 420.543C93.9365 415.497 94.3105 412.095 94.7799 409.675C95.2482 407.261 95.8 405.891 96.5328 404.868L95.3134 403.994ZM95.3372 403.962L95.3267 403.976L96.5196 404.886L96.5301 404.872L95.3372 403.962ZM196.295 474.642C178.581 477.718 163.836 479.209 151.596 478.634C139.361 478.06 129.676 475.422 122.04 470.281C106.783 460.008 99.4075 439.525 96.6814 404.359L95.1859 404.475C97.9143 439.67 105.314 460.827 121.203 471.525C129.14 476.87 139.121 479.55 151.526 480.133C163.926 480.715 178.796 479.203 196.551 476.12L196.295 474.642ZM208.282 411.347C205.697 435.864 200.937 461.331 195.722 475.116L197.125 475.646C202.411 461.675 207.185 436.052 209.773 411.504L208.282 411.347ZM273.998 482.263C269.465 485.384 264.271 484.72 258.594 481.22C252.9 477.711 246.883 471.432 240.932 463.674C229.042 448.173 217.594 427.006 209.699 411.092L208.356 411.759C216.259 427.691 227.759 448.965 239.742 464.587C245.727 472.39 251.878 478.843 257.807 482.497C263.751 486.161 269.631 487.091 274.848 483.499L273.998 482.263ZM286.814 353.382C306.685 371.725 310.332 399.202 305.53 424.569C303.132 437.242 298.63 449.347 293.026 459.451C287.417 469.565 280.732 477.627 273.998 482.263L274.848 483.499C281.839 478.686 288.663 470.412 294.338 460.179C300.018 449.935 304.576 437.679 307.004 424.848C311.857 399.208 308.23 371.11 287.832 352.28L286.814 353.382ZM271.674 390.108C274.707 387.411 278.935 383.655 282.335 377.781C285.741 371.898 288.295 363.93 288.073 352.816L286.573 352.846C286.79 363.698 284.299 371.394 281.037 377.03C277.769 382.676 273.704 386.295 270.678 388.987L271.674 390.108ZM268.565 393.101C269.256 392.262 270.322 391.311 271.674 390.108L270.678 388.987C269.36 390.159 268.189 391.198 267.407 392.147L268.565 393.101ZM263.773 373.168C266.53 374.374 268.221 375.931 269.212 377.605C270.204 379.283 270.529 381.139 270.446 382.999C270.278 386.75 268.457 390.398 267.344 392.236L268.628 393.012C269.784 391.101 271.759 387.193 271.944 383.066C272.037 380.988 271.677 378.826 270.503 376.841C269.326 374.853 267.369 373.103 264.374 371.794L263.773 373.168ZM212.435 412.184C233.959 404.171 248.627 397.961 257.109 391.934C261.357 388.916 264.139 385.887 265.415 382.618C266.705 379.317 266.416 375.884 264.758 372.175L263.388 372.787C264.923 376.221 265.129 379.229 264.018 382.073C262.894 384.95 260.381 387.77 256.241 390.711C247.948 396.603 233.473 402.751 211.911 410.778L212.435 412.184ZM208.828 407.413L211.532 411.87L212.814 411.092L210.11 406.635L208.828 407.413ZM206.067 350.485C207.219 351.755 208.174 354.189 208.879 357.697C209.576 361.17 210.006 365.572 210.196 370.653C210.575 380.813 209.993 393.608 208.723 406.953L210.216 407.095C211.489 393.713 212.078 380.847 211.695 370.597C211.504 365.474 211.069 360.984 210.349 357.401C209.637 353.854 208.621 351.068 207.179 349.477L206.067 350.485Z" fill="#B25622"/>
<rect x="33.8231" y="39" width="269.7" height="267.181" fill="url(#paint8_radial_6_194)"/>
<rect x="33.8231" y="39" width="269.7" height="267.181" stroke="black"/>
<mask id="path-11-inside-1_6_194" fill="white">
<path fill-rule="evenodd" clip-rule="evenodd" d="M135.223 12.7811C127.423 27.331 121.273 3.48109 135.223 6.78108C148.034 9.81168 150.472 33.2105 131.382 43.2843C75.841 55.5102 34.5724 105.574 35.2712 164.971C35.4111 176.863 37.2237 188.34 40.4816 199.181C34.124 217.916 34.377 231.356 42.8231 249.631L65.1386 244.096C66.3498 245.502 67.5921 246.879 68.8643 248.227C89.1054 282.574 131.167 306.181 179.773 306.181C248.118 306.181 303.523 259.507 303.523 201.931C303.523 177.84 293.823 155.657 277.533 138.004C266.053 83.2958 218.492 42.1318 161.3 40.4833C157.54 13.2957 141.362 0.181061 135.223 0.181061C128.773 0.181061 120.823 2.13106 120.073 12.7811C120.523 17.4311 123.673 22.5311 128.323 22.8311C133.123 22.0811 134.623 20.5811 134.923 18.1811C135.223 15.7811 135.223 12.7811 135.223 12.7811Z"/>
</mask>
<path fill-rule="evenodd" clip-rule="evenodd" d="M135.223 12.7811C127.423 27.331 121.273 3.48109 135.223 6.78108C148.034 9.81168 150.472 33.2105 131.382 43.2843C75.841 55.5102 34.5724 105.574 35.2712 164.971C35.4111 176.863 37.2237 188.34 40.4816 199.181C34.124 217.916 34.377 231.356 42.8231 249.631L65.1386 244.096C66.3498 245.502 67.5921 246.879 68.8643 248.227C89.1054 282.574 131.167 306.181 179.773 306.181C248.118 306.181 303.523 259.507 303.523 201.931C303.523 177.84 293.823 155.657 277.533 138.004C266.053 83.2958 218.492 42.1318 161.3 40.4833C157.54 13.2957 141.362 0.181061 135.223 0.181061C128.773 0.181061 120.823 2.13106 120.073 12.7811C120.523 17.4311 123.673 22.5311 128.323 22.8311C133.123 22.0811 134.623 20.5811 134.923 18.1811C135.223 15.7811 135.223 12.7811 135.223 12.7811Z" fill="url(#paint9_radial_6_194)"/>
<path d="M135.223 6.78108L135.568 5.32136L135.223 6.78108ZM135.223 12.7811H136.723L133.901 12.0724L135.223 12.7811ZM131.382 43.2843L131.704 44.7492L131.902 44.7056L132.082 44.6109L131.382 43.2843ZM35.2712 164.971L33.7713 164.989L35.2712 164.971ZM40.4816 199.181L41.902 199.663L42.0562 199.209L41.9181 198.749L40.4816 199.181ZM42.8231 249.631L41.4615 250.26L41.9814 251.385L43.1842 251.087L42.8231 249.631ZM65.1386 244.096L66.2747 243.117L65.6726 242.419L64.7775 242.641L65.1386 244.096ZM68.8643 248.227L70.1566 247.465L70.071 247.32L69.9552 247.197L68.8643 248.227ZM277.533 138.004L276.065 138.312L276.15 138.717L276.43 139.021L277.533 138.004ZM161.3 40.4833L159.814 40.6888L159.988 41.9461L161.256 41.9827L161.3 40.4833ZM120.073 12.7811L118.577 12.6757L118.568 12.8008L118.58 12.9256L120.073 12.7811ZM128.323 22.8311L128.227 24.3279L128.391 24.3386L128.555 24.3131L128.323 22.8311ZM134.923 18.1811L133.435 17.995V17.995L134.923 18.1811ZM135.568 5.32136C131.68 4.40152 128.799 5.32137 127.08 7.42282C125.457 9.40743 125.149 12.1229 125.598 14.3025C125.826 15.4094 126.268 16.484 126.939 17.3353C127.615 18.1927 128.588 18.8932 129.829 19.0111C131.072 19.1292 132.283 18.634 133.377 17.713C134.462 16.7999 135.519 15.4032 136.545 13.4898L133.901 12.0724C132.977 13.7965 132.135 14.8372 131.446 15.4177C130.765 15.9903 130.325 16.0447 130.113 16.0245C129.898 16.0041 129.611 15.8784 129.295 15.4778C128.974 15.0711 128.692 14.4559 128.536 13.6971C128.216 12.1455 128.499 10.4266 129.402 9.32215C130.21 8.33454 131.791 7.51064 134.878 8.24079L135.568 5.32136ZM132.082 44.6109C142.111 39.3184 146.577 30.454 146.765 22.4266C146.951 14.5032 142.898 7.05526 135.568 5.32136L134.878 8.24079C140.359 9.53749 143.931 15.3043 143.766 22.3563C143.603 29.3044 139.742 37.1763 130.682 41.9577L132.082 44.6109ZM36.7711 164.954C36.0808 106.276 76.8489 56.8243 131.704 44.7492L131.059 41.8194C74.8332 54.1961 33.064 104.872 33.7713 164.989L36.7711 164.954ZM41.9181 198.749C38.7003 188.042 36.9093 176.703 36.7711 164.954L33.7713 164.989C33.9129 177.022 35.7472 188.639 39.0451 199.613L41.9181 198.749ZM44.1848 249.002C40.0199 239.99 37.914 232.256 37.5998 224.517C37.2853 216.774 38.7601 208.922 41.902 199.663L39.0611 198.699C35.8455 208.175 34.268 216.41 34.6022 224.639C34.9366 232.873 37.1803 240.997 41.4615 250.26L44.1848 249.002ZM64.7775 242.641L42.4621 248.175L43.1842 251.087L65.4997 245.552L64.7775 242.641ZM69.9552 247.197C68.6984 245.865 67.4712 244.505 66.2747 243.117L64.0025 245.076C65.2284 246.498 66.4857 247.892 67.7734 249.256L69.9552 247.197ZM179.773 304.681C131.629 304.681 90.0947 281.298 70.1566 247.465L67.572 248.988C88.1162 283.849 130.705 307.681 179.773 307.681V304.681ZM302.023 201.931C302.023 258.448 247.541 304.681 179.773 304.681V307.681C248.696 307.681 305.023 260.566 305.023 201.931H302.023ZM276.43 139.021C292.495 156.43 302.023 178.259 302.023 201.931H305.023C305.023 177.42 295.15 154.884 278.635 136.986L276.43 139.021ZM161.256 41.9827C217.74 43.6108 264.724 84.2671 276.065 138.312L279.001 137.696C267.382 82.3245 219.244 40.6529 161.343 38.9839L161.256 41.9827ZM135.223 1.68106C136.312 1.68106 138.17 2.30476 140.516 3.89636C142.812 5.45347 145.418 7.83206 147.977 11.0674C153.09 17.5307 157.97 27.3548 159.814 40.6888L162.785 40.2778C160.87 26.4242 155.781 16.0971 150.33 9.20622C147.607 5.76447 144.783 3.16518 142.201 1.41369C139.669 -0.303316 137.203 -1.31894 135.223 -1.31894V1.68106ZM121.569 12.8864C121.915 7.98266 123.872 5.29221 126.31 3.75652C128.844 2.16022 132.107 1.68106 135.223 1.68106V-1.31894C131.889 -1.31894 127.952 -0.823094 124.711 1.2181C121.374 3.31992 118.981 6.92947 118.577 12.6757L121.569 12.8864ZM128.42 21.3342C126.654 21.2203 125.068 20.192 123.822 18.5354C122.573 16.8756 121.766 14.704 121.566 12.6366L118.58 12.9256C118.83 15.5082 119.824 18.2115 121.425 20.3392C123.028 22.4701 125.342 24.1418 128.227 24.3279L128.42 21.3342ZM133.435 17.995C133.324 18.8807 133.031 19.4537 132.404 19.9301C131.687 20.4741 130.407 20.9873 128.092 21.349L128.555 24.3131C131.04 23.9248 132.909 23.313 134.218 22.3195C135.615 21.2584 136.222 19.8814 136.412 18.3671L133.435 17.995ZM135.223 12.7811C133.723 12.7811 133.723 12.781 133.723 12.781C133.723 12.781 133.723 12.7809 133.723 12.7809C133.723 12.7809 133.723 12.781 133.723 12.781C133.723 12.7812 133.723 12.7815 133.723 12.7821C133.723 12.7831 133.723 12.7849 133.723 12.7874C133.723 12.7923 133.723 12.8 133.723 12.8105C133.723 12.8314 133.723 12.863 133.723 12.9045C133.722 12.9876 133.721 13.1102 133.719 13.2653C133.714 13.5756 133.705 14.015 133.687 14.5275C133.65 15.5604 133.577 16.8596 133.435 17.995L136.412 18.3671C136.57 17.1026 136.647 15.7018 136.685 14.6346C136.704 14.0972 136.713 13.6365 136.718 13.3094C136.721 13.1457 136.722 13.0152 136.722 12.9248C136.723 12.8796 136.723 12.8445 136.723 12.8202C136.723 12.8081 136.723 12.7987 136.723 12.7921C136.723 12.7889 136.723 12.7863 136.723 12.7844C136.723 12.7835 136.723 12.7828 136.723 12.7822C136.723 12.7819 136.723 12.7817 136.723 12.7815C136.723 12.7814 136.723 12.7813 136.723 12.7813C136.723 12.7812 136.723 12.7811 135.223 12.7811Z" fill="#B25622" mask="url(#path-11-inside-1_6_194)"/>
<ellipse cx="165.523" cy="193.831" rx="41.7" ry="56.85" fill="#D9D9D9"/>
<ellipse cx="171.045" cy="172.374" rx="27.6" ry="40.1846" transform="rotate(-14.5129 171.045 172.374)" fill="url(#paint10_linear_6_194)"/>
<ellipse cx="172.23" cy="168.671" rx="20.55" ry="28.4137" transform="rotate(-14.9755 172.23 168.671)" fill="black"/>
<path d="M136.573 152.581L128.623 166.081L131.323 156.181L136.573 146.881L142.573 140.431L151.123 134.131L160.123 130.981H171.223L179.923 134.131L188.773 140.431L194.323 146.881L199.423 154.981L202.573 163.381V166.531L198.073 157.681L188.623 145.831L177.673 138.631L164.773 135.931L149.173 140.881C143.803 143.866 141.116 146.68 136.573 152.581Z" fill="#B2661B" stroke="#D9D9D9" stroke-width="0.3"/>
<ellipse cx="151.723" cy="162.481" rx="6.6" ry="6.3" fill="url(#paint11_linear_6_194)"/>
<path fill-rule="evenodd" clip-rule="evenodd" d="M206.311 191.818C206.05 207.71 201.462 222.002 194.246 232.375C186.858 242.998 176.813 249.399 165.883 249.48C165.813 249.481 165.743 249.481 165.673 249.481C165.603 249.481 165.533 249.481 165.464 249.48C154.533 249.399 144.489 242.998 137.1 232.375C129.885 222.002 125.296 207.71 125.035 191.818C125.296 176.689 129.876 163.082 137.081 153.204C144.503 143.027 154.63 136.892 165.673 136.892C176.716 136.892 186.844 143.027 194.266 153.204C201.47 163.082 206.05 176.689 206.311 191.818ZM165.895 250.98C189.072 250.816 207.823 225.004 207.823 193.187C207.823 192.729 207.819 192.272 207.812 191.817C207.819 191.34 207.823 190.861 207.823 190.381C207.823 156.913 188.952 129.781 165.673 129.781C142.394 129.781 123.523 156.913 123.523 190.381C123.523 190.861 123.527 191.34 123.535 191.817C123.527 192.272 123.523 192.729 123.523 193.187C123.523 225.004 142.274 250.816 165.451 250.98C165.525 250.981 165.599 250.981 165.673 250.981C165.747 250.981 165.821 250.981 165.895 250.98ZM129.366 163.81C131.365 158.064 133.988 152.861 137.1 148.387C144.536 137.696 154.662 131.281 165.673 131.281C176.684 131.281 186.81 137.696 194.246 148.387C197.358 152.861 199.982 158.064 201.98 163.81C194.643 146.8 181.13 135.392 165.673 135.392C150.216 135.392 136.703 146.8 129.366 163.81Z" fill="#59260A"/>
<path d="M151.273 102.181C181.547 100.301 194.186 110.24 211.873 140.281" stroke="url(#paint12_linear_6_194)" stroke-opacity="0.8" stroke-width="1.5" stroke-linecap="round"/>
<ellipse cx="66.8461" cy="199.729" rx="24.5162" ry="43.2629" transform="rotate(-13.3208 66.8461 199.729)" fill="#D9D9D9"/>
<ellipse cx="21.0279" cy="35.0002" rx="21.0279" ry="35.0002" transform="matrix(0.948275 -0.317451 0.287962 0.957642 40.7231 165.332)" fill="url(#paint13_linear_6_194)"/>
<ellipse cx="15.493" cy="24.6313" rx="15.493" ry="24.6313" transform="matrix(0.979932 -0.199333 0.179739 0.983714 53.9489 165.711)" fill="black"/>
<path d="M45.9731 176.281L42.6731 187.231L41.4731 188.581L43.4231 175.081L46.8731 166.831L51.3731 159.781L58.7231 155.281L65.0231 154.531L74.7731 158.281L81.9731 164.881L85.2731 169.981L89.3231 178.231L88.4231 179.881L80.6231 168.781L69.3731 161.581L58.7231 162.631L51.3731 167.731L45.9731 176.281Z" fill="#B2661B" stroke="#59260A" stroke-width="0.3" stroke-linecap="round"/>
<path d="M94.0168 197.883C95.7715 209.109 94.4566 219.69 90.9512 227.716C87.4416 235.75 81.7913 241.123 74.9103 242.199C68.0293 243.275 61.0088 239.882 55.2148 233.301C49.4276 226.729 44.9464 217.053 43.1917 205.827C41.437 194.601 42.7519 184.019 46.2573 175.994C49.7669 167.959 55.4172 162.586 62.2982 161.511C69.1792 160.435 76.1997 163.828 81.9938 170.408C87.7809 176.981 92.2621 186.656 94.0168 197.883Z" stroke="#59260A" stroke-width="1.5"/>
<path d="M93.4636 194.344C95.3728 206.558 94.1924 218.034 90.7786 226.705C87.3573 235.394 81.7611 241.128 74.9102 242.199C68.0594 243.27 60.9804 239.517 55.0705 232.286C49.1737 225.07 44.5477 214.502 42.6385 202.288C40.7293 190.073 41.9097 178.598 45.3235 169.927C48.7448 161.237 54.341 155.503 61.1918 154.432C68.0427 153.362 75.1217 157.114 81.0316 164.346C86.9284 171.561 91.5544 182.129 93.4636 194.344Z" stroke="#59260A" stroke-width="1.5"/>
<ellipse cx="87.523" cy="200.281" rx="2.4" ry="2.7" fill="#D9D9D9" fill-opacity="0.3"/>
<circle cx="189.673" cy="184.831" r="3.45" fill="#D9D9D9" fill-opacity="0.3"/>
<path d="M36.0731 151.981C49.3087 135.244 57.6266 129.405 74.6231 127.531" stroke="url(#paint14_linear_6_194)" stroke-width="1.5" stroke-linecap="round"/>
<path d="M66.5231 241.681L48.0731 230.731L62.6231 282.031C90.5969 303.684 102.643 308.237 119.323 306.331L104.173 227.581C92.6835 227.547 86.4379 229.559 76.1231 241.681H66.5231Z" fill="url(#paint15_linear_6_194)"/>
<path d="M10.1231 282.031C27.0895 304.537 50.2575 300.938 62.3231 282.031L53.9231 233.881C33.3045 223.413 21.8412 217.801 10.1231 231.031C9.01714 228.671 -6.84322 259.526 10.1231 282.031Z" fill="url(#paint16_linear_6_194)"/>
<path d="M144.523 241.381C119.857 230.221 107.741 225.369 100.273 228.331L86.9232 235.381L120.073 307.381C132.668 329.771 162.073 333.181 181.123 314.881C200.173 296.581 158.773 242.881 158.773 242.881C154.258 244.244 151.058 243.766 144.523 241.381Z" fill="url(#paint17_linear_6_194)"/>
<path d="M156.223 244.981C167.288 235.373 172.492 231.685 177.673 232.081C193.947 236.192 200.378 258.27 199.273 280.381C198.253 300.814 181.687 314.028 180.609 315.743L180.673 315.931C180.536 315.948 180.52 315.884 180.609 315.743L156.223 244.981Z" fill="url(#paint18_linear_6_194)"/>
<g filter="url(#filter0_dd_6_194)">
<path d="M175.123 257.581C175.123 257.581 165.189 303.934 119.773 306.781C74.3571 309.628 42.4337 254.621 35.9231 257.581C29.4125 260.541 29.2677 261.412 29.3231 266.731M63.2231 282.181C42.6051 315.823 -12.5674 287.143 5.62312 238.681C23.8137 190.219 90.374 274.51 116.173 257.581M67.2731 241.531C73.9483 242.112 75.9532 241.658 77.7731 240.181C98.1242 213.686 132.006 236.527 145.573 241.531C159.14 246.535 160.123 241.531 160.123 241.531C173.846 229.76 181.014 227.186 191.323 241.531C224.448 309.33 147.339 356.16 119.173 307.081" stroke="#59260A" stroke-width="1.5"/>
</g>
<path d="M201.16 388.102C198.659 389.146 197.645 389.165 200.173 386.881L201.16 388.102C209.291 384.707 233.14 370.475 202.117 389.286L276.823 481.681C216.478 525.401 49.5731 481.681 159.523 415.081C179.492 402.985 193.115 394.744 202.117 389.286L201.16 388.102Z" fill="url(#paint19_linear_6_194)"/>
<path d="M200.173 386.881C187.042 398.744 269.473 348.481 159.523 415.081C49.5731 481.681 216.478 525.401 276.823 481.681L200.173 386.881Z" stroke="#B25622" stroke-width="1.5"/>
<path d="M198.523 364.081C213.349 358.765 276.893 398.906 250.873 423.631C271.562 435.182 272.566 439.831 256.123 444.931C279.678 449.576 280.068 452.907 256.123 460.231L281.023 481.831C231.516 502.156 173.422 463.201 176.473 439.831C179.525 416.462 187.056 417.71 190.573 399.631C188.836 396.672 183.698 369.397 198.523 364.081Z" fill="url(#paint20_linear_6_194)" stroke="#B25622" stroke-width="1.5"/>
<defs>
<filter id="filter0_dd_6_194" x="0.0501831" y="222.713" width="201.342" height="107.847" filterUnits="userSpaceOnUse" color-interpolation-filters="sRGB">
<feFlood flood-opacity="0" result="BackgroundImageFix"/>
<feColorMatrix in="SourceAlpha" type="matrix" values="0 0 0 0 0 0 0 0 0 0 0 0 0 0 0 0 0 0 127 0" result="hardAlpha"/>
<feOffset dy="1.2"/>
<feGaussianBlur stdDeviation="0.6"/>
<feComposite in2="hardAlpha" operator="out"/>
<feColorMatrix type="matrix" values="0 0 0 0 0 0 0 0 0 0 0 0 0 0 0 0 0 0 0.25 0"/>
<feBlend mode="normal" in2="BackgroundImageFix" result="effect1_dropShadow_6_194"/>
<feColorMatrix in="SourceAlpha" type="matrix" values="0 0 0 0 0 0 0 0 0 0 0 0 0 0 0 0 0 0 127 0" result="hardAlpha"/>
<feOffset dy="1.2"/>
<feGaussianBlur stdDeviation="0.6"/>
<feComposite in2="hardAlpha" operator="out"/>
<feColorMatrix type="matrix" values="0 0 0 0 0 0 0 0 0 0 0 0 0 0 0 0 0 0 0.25 0"/>
<feBlend mode="normal" in2="effect1_dropShadow_6_194" result="effect2_dropShadow_6_194"/>
<feBlend mode="normal" in="SourceGraphic" in2="effect2_dropShadow_6_194" result="shape"/>
</filter>
<linearGradient id="paint0_linear_6_194" x1="137.173" y1="355.381" x2="42.3732" y2="333.481" gradientUnits="userSpaceOnUse">
<stop offset="0.167901" stop-color="#59260A"/>
<stop offset="1" stop-color="#B25622"/>
</linearGradient>
<linearGradient id="paint1_linear_6_194" x1="141.862" y1="490.455" x2="141.862" y2="496.893" gradientUnits="userSpaceOnUse">
<stop stop-color="#59260A"/>
<stop offset="1" stop-color="#AA8239"/>
</linearGradient>
<linearGradient id="paint2_linear_6_194" x1="101.323" y1="508.681" x2="200.173" y2="501.181" gradientUnits="userSpaceOnUse">
<stop stop-color="#B2661B"/>
<stop offset="1" stop-color="#59260A"/>
</linearGradient>
<linearGradient id="paint3_linear_6_194" x1="170.155" y1="499.081" x2="170.155" y2="521.362" gradientUnits="userSpaceOnUse">
<stop stop-color="#AA8239"/>
<stop offset="1" stop-color="#B2661B"/>
</linearGradient>
<linearGradient id="paint4_linear_6_194" x1="152.323" y1="523.381" x2="193.723" y2="511.981" gradientUnits="userSpaceOnUse">
<stop stop-color="#B25622"/>
<stop offset="1" stop-color="#59260A"/>
</linearGradient>
<linearGradient id="paint5_linear_6_194" x1="138.373" y1="541.831" x2="206.323" y2="517.231" gradientUnits="userSpaceOnUse">
<stop stop-color="#B2661B"/>
<stop offset="1" stop-color="#59260A"/>
</linearGradient>
<linearGradient id="paint6_linear_6_194" x1="213.571" y1="482.431" x2="153.073" y2="560.581" gradientUnits="userSpaceOnUse">
<stop offset="0.234863" stop-color="#8D4319"/>
<stop offset="0.596019" stop-color="#AA8239"/>
</linearGradient>
<linearGradient id="paint7_linear_6_194" x1="327.763" y1="284.431" x2="327.763" y2="934.68" gradientUnits="userSpaceOnUse">
<stop offset="0.473958" stop-color="#D7CAAA"/>
<stop offset="1" stop-color="#59260A"/>
</linearGradient>
<radialGradient id="paint8_radial_6_194" cx="0" cy="0" r="1" gradientUnits="userSpaceOnUse" gradientTransform="translate(168.673 172.591) rotate(90) scale(133.591 134.85)">
<stop stop-color="white"/>
<stop offset="1" stop-color="white" stop-opacity="0"/>
</radialGradient>
<radialGradient id="paint9_radial_6_194" cx="0" cy="0" r="1" gradientUnits="userSpaceOnUse" gradientTransform="translate(169.423 202.231) rotate(-90) scale(157.95 138.47)">
<stop stop-color="#59260A"/>
<stop offset="0.177083" stop-color="#B25622"/>
<stop offset="1" stop-color="white"/>
</radialGradient>
<linearGradient id="paint10_linear_6_194" x1="171.045" y1="132.19" x2="171.045" y2="212.559" gradientUnits="userSpaceOnUse">
<stop stop-color="#1F69EB"/>
<stop offset="1" stop-color="#0E5440"/>
</linearGradient>
<linearGradient id="paint11_linear_6_194" x1="147.373" y1="156.181" x2="158.323" y2="168.781" gradientUnits="userSpaceOnUse">
<stop stop-color="#D9D9D9" stop-opacity="0.6"/>
<stop offset="1" stop-color="#D9D9D9" stop-opacity="0.2"/>
</linearGradient>
<linearGradient id="paint12_linear_6_194" x1="181.573" y1="101.961" x2="181.573" y2="140.281" gradientUnits="userSpaceOnUse">
<stop stop-color="#59260A"/>
<stop offset="1" stop-color="#59260A" stop-opacity="0"/>
</linearGradient>
<linearGradient id="paint13_linear_6_194" x1="21.0279" y1="0" x2="21.0279" y2="70.0004" gradientUnits="userSpaceOnUse">
<stop stop-color="#1F69EB"/>
<stop offset="1" stop-color="#0E5440"/>
</linearGradient>
<linearGradient id="paint14_linear_6_194" x1="40.8731" y1="151.981" x2="74.6231" y2="127.681" gradientUnits="userSpaceOnUse">
<stop stop-color="#59260A"/>
<stop offset="1" stop-color="#59260A" stop-opacity="0"/>
</linearGradient>
<linearGradient id="paint15_linear_6_194" x1="83.6981" y1="227.581" x2="83.6981" y2="306.724" gradientUnits="userSpaceOnUse">
<stop stop-color="#EB671D"/>
<stop offset="1" stop-color="#6C4935"/>
</linearGradient>
<linearGradient id="paint16_linear_6_194" x1="32.3269" y1="223.295" x2="32.3269" y2="297.59" gradientUnits="userSpaceOnUse">
<stop stop-color="#EB671D"/>
<stop offset="1" stop-color="#6C4935"/>
</linearGradient>
<linearGradient id="paint17_linear_6_194" x1="136.529" y1="227.478" x2="136.529" y2="326.663" gradientUnits="userSpaceOnUse">
<stop stop-color="#EB671D"/>
<stop offset="1" stop-color="#6C4935"/>
</linearGradient>
<linearGradient id="paint18_linear_6_194" x1="177.808" y1="232.052" x2="177.808" y2="315.934" gradientUnits="userSpaceOnUse">
<stop stop-color="#EB671D"/>
<stop offset="1" stop-color="#6C4935"/>
</linearGradient>
<linearGradient id="paint19_linear_6_194" x1="199.86" y1="379.748" x2="199.86" y2="499.257" gradientUnits="userSpaceOnUse">
<stop stop-color="#856A5B"/>
<stop offset="1" stop-color="#59260A"/>
</linearGradient>
<linearGradient id="paint20_linear_6_194" x1="228.691" y1="363.602" x2="228.691" y2="487.514" gradientUnits="userSpaceOnUse">
<stop offset="0.0260417" stop-color="#AA8239"/>
<stop offset="0.46875" stop-color="#D9D9D9"/>
<stop offset="0.989583" stop-color="#B25622"/>
</linearGradient>
</defs>
</svg>
