<svg style="height: 512px; width: 512px;" xmlns="http://www.w3.org/2000/svg" viewBox="0 0 512 512"><defs><filter id="shadow-1" height="300%" width="300%" x="-100%" y="-100%"><feFlood flood-color="rgba(255, 255, 255, 1)" result="flood"></feFlood><feComposite in="flood" in2="SourceGraphic" operator="atop" result="composite"></feComposite><feGaussianBlur in="composite" stdDeviation="15" result="blur"></feGaussianBlur><feOffset dx="0" dy="0" result="offset"></feOffset><feComposite in="SourceGraphic" in2="offset" operator="over"></feComposite></filter><radialGradient id="delapouite-gamepad-gradient-0"><stop offset="0%" stop-color="#2c5611" stop-opacity="1" style="--darkreader-inline-stopcolor: #28371e;" data-darkreader-inline-stopcolor=""></stop><stop offset="100%" stop-color="#010f1a" stop-opacity="1" style="--darkreader-inline-stopcolor: #0a0f13;" data-darkreader-inline-stopcolor=""></stop></radialGradient><linearGradient x1="0" x2="0" y1="0" y2="1" id="delapouite-gamepad-gradient-1"><stop offset="0%" stop-color="#956c34" stop-opacity="1" style="--darkreader-inline-stopcolor: #584935;" data-darkreader-inline-stopcolor=""></stop><stop offset="100%" stop-color="#432965" stop-opacity="1" style="--darkreader-inline-stopcolor: #2b2238;" data-darkreader-inline-stopcolor=""></stop></linearGradient></defs><circle cx="256" cy="256" r="256" fill="url(#delapouite-gamepad-gradient-0)" style="--darkreader-inline-fill: #060606;"></circle><g class="" style="" transform="translate(0,0)"><path d="M155.084 125.945c-.46 0-.926.01-1.397.034-5.646.285-12.097 2.464-20.707 8.204-21.824 14.55-51.912 60.395-67.834 110.005-15.92 49.61-18.046 102.25 5.936 132.966 4.142 5.306 13.387 8.93 23.756 8.846 10.216-.084 20.682-3.838 26.482-9.44 1.022-1.47 9.296-13.336 21.39-27.404 12.863-14.96 28.716-31.686 45.835-38.777 41.863-17.34 93.024-17.34 134.887 0 17.118 7.092 32.97 23.818 45.834 38.778 12.095 14.068 20.37 25.933 21.39 27.404 5.8 5.602 16.267 9.356 26.483 9.44 10.368.085 19.612-3.54 23.755-8.846 23.973-30.704 21.885-83.575 5.978-133.287-15.907-49.713-46.054-95.526-67.783-109.624-11.498-7.46-19.198-8.73-26.285-7.64-7.088 1.093-14.347 5.197-22.866 11.07-17.038 11.746-38.898 30.02-73.952 30.02-35.212 0-57.115-18.514-74.13-30.356-8.505-5.92-15.73-10.025-22.743-11.078-1.315-.198-2.65-.312-4.03-.317zm212.904 48.75a16 16 0 0 1 16 16 16 16 0 0 1-16 16 16 16 0 0 1-16-16 16 16 0 0 1 16-16zM135 183h18v32h32v18h-32v32h-18v-32h-32v-18h32v-32zm200.988 23.695a16 16 0 0 1 16 16 16 16 0 0 1-16 16 16 16 0 0 1-16-16 16 16 0 0 1 16-16zm64 0a16 16 0 0 1 16 16 16 16 0 0 1-16 16 16 16 0 0 1-16-16 16 16 0 0 1 16-16zm-32 32a16 16 0 0 1 16 16 16 16 0 0 1-16 16 16 16 0 0 1-16-16 16 16 0 0 1 16-16zm-160 7h32v18h-32v-18zm64 0h27.897v18h-27.897v-18z" fill="url(#delapouite-gamepad-gradient-1)" style="--darkreader-inline-fill: #191a1a; --darkreader-inline-stroke: #86837e;" filter="url(#shadow-1)" transform="translate(51.2, 51.2) scale(0.8, 0.8) rotate(0, 256, 256) skewX(0) skewY(0)" stroke="#8da1b1" stroke-opacity="1" stroke-width="8" data-darkreader-inline-stroke=""></path></g><g font-family="Arial, Helvetica, sans-serif" font-size="120" font-style="normal" font-weight="bold" text-anchor="middle" text-decoration=" rgba(245, 166, 35, 1)" class="" style="" transform="translate(258,108)"><g transform="translate(0, 0) scale(0.7, 0.7) rotate(0, 0, 0) skewX(0) skewY(0)"><text stroke="rgba(126, 211, 33, 0.2)" stroke-width="30" style="--darkreader-inline-stroke: rgba(90, 119, 59, 0.2);" data-darkreader-inline-stroke=""><tspan x="0" y="0">NEW</tspan><tspan x="0" y="120"></tspan><tspan x="0" y="240"></tspan><tspan x="0" y="360"></tspan><tspan x="0" y="480">GAME</tspan></text><text fill="rgba(245, 166, 35, 1)" style="--darkreader-inline-fill: #ad8c55;" data-darkreader-inline-fill=""><tspan x="0" y="0">NEW</tspan><tspan x="0" y="120"></tspan><tspan x="0" y="240"></tspan><tspan x="0" y="360"></tspan><tspan x="0" y="480">GAME</tspan></text></g></g></svg>