<svg xmlns="http://www.w3.org/2000/svg" xmlns:xlink="http://www.w3.org/1999/xlink" width="1080" zoomAndPan="magnify" viewBox="0 0 810 809.999993" height="1080" preserveAspectRatio="xMidYMid meet" version="1.0"><defs><clipPath id="b686a725d5"><path d="M 35 38.007812 L 769 38.007812 L 769 772.257812 L 35 772.257812 Z M 35 38.007812 " clip-rule="nonzero"/></clipPath></defs><g clip-path="url(#b686a725d5)"><path fill="#fcd34d" d="M 41.039062 162.910156 L 72.957031 154.929688 C 74.214844 151.367188 75.652344 147.882812 77.265625 144.472656 L 60.347656 115.660156 C 59.902344 114.902344 59.589844 114.09375 59.410156 113.230469 C 59.230469 112.371094 59.195312 111.503906 59.304688 110.628906 C 59.414062 109.757812 59.660156 108.921875 60.042969 108.132812 C 60.425781 107.339844 60.925781 106.628906 61.546875 106.003906 L 102.242188 65.300781 C 102.867188 64.683594 103.578125 64.183594 104.371094 63.796875 C 105.160156 63.414062 105.992188 63.167969 106.867188 63.0625 C 107.738281 62.953125 108.605469 62.988281 109.46875 63.167969 C 110.328125 63.34375 111.140625 63.65625 111.898438 64.105469 L 141.105469 80.625 C 144.515625 79.007812 148 77.574219 151.558594 76.316406 L 159.9375 43.992188 C 160.046875 43.554688 160.195312 43.132812 160.378906 42.722656 C 160.566406 42.3125 160.78125 41.917969 161.03125 41.542969 C 161.28125 41.171875 161.5625 40.820312 161.871094 40.492188 C 162.179688 40.167969 162.515625 39.867188 162.875 39.597656 C 163.234375 39.328125 163.617188 39.089844 164.015625 38.886719 C 164.417969 38.679688 164.832031 38.507812 165.261719 38.371094 C 165.691406 38.238281 166.128906 38.140625 166.574219 38.078125 C 167.019531 38.015625 167.464844 37.992188 167.917969 38.007812 L 225.371094 38.007812 C 225.820312 37.992188 226.269531 38.015625 226.714844 38.078125 C 227.160156 38.140625 227.597656 38.238281 228.027344 38.371094 C 228.457031 38.507812 228.871094 38.679688 229.269531 38.886719 C 229.671875 39.089844 230.050781 39.328125 230.410156 39.597656 C 230.769531 39.867188 231.105469 40.167969 231.414062 40.492188 C 231.726562 40.820312 232.003906 41.171875 232.253906 41.542969 C 232.503906 41.917969 232.722656 42.3125 232.90625 42.722656 C 233.089844 43.132812 233.238281 43.554688 233.351562 43.992188 L 241.332031 76.316406 C 244.886719 77.574219 248.375 79.007812 251.785156 80.625 L 280.429688 63.707031 C 280.816406 63.464844 281.21875 63.257812 281.636719 63.082031 C 282.058594 62.910156 282.488281 62.773438 282.929688 62.675781 C 283.375 62.574219 283.820312 62.511719 284.273438 62.488281 C 284.726562 62.46875 285.179688 62.484375 285.632812 62.535156 C 286.082031 62.589844 286.523438 62.683594 286.960938 62.8125 C 287.394531 62.941406 287.816406 63.109375 288.222656 63.308594 C 288.628906 63.511719 289.015625 63.746094 289.382812 64.011719 C 289.75 64.28125 290.089844 64.578125 290.40625 64.902344 L 323.28125 97.785156 C 330.777344 94.796875 338.4375 92.324219 346.265625 90.363281 C 461.492188 61.949219 555.015625 82.699219 624.363281 152.054688 C 678.941406 206.644531 694.34375 314.46875 696.179688 332.984375 C 726.902344 367.460938 775.179688 425.960938 768 446.074219 C 761.214844 464.75 727.460938 476.960938 711.820312 481.191406 C 713.015625 508.164062 716.289062 608.886719 695.859375 643.125 C 675.433594 677.363281 601.058594 659.085938 571.933594 650.066406 L 574.007812 764.273438 C 574.027344 765.351562 573.832031 766.386719 573.433594 767.382812 C 573.03125 768.378906 572.453125 769.257812 571.695312 770.023438 C 570.949219 770.785156 570.082031 771.371094 569.101562 771.785156 C 568.121094 772.203125 567.09375 772.410156 566.027344 772.414062 L 314.347656 772.414062 C 314.03125 772.414062 313.71875 772.398438 313.40625 772.359375 C 313.097656 772.324219 312.789062 772.265625 312.484375 772.195312 C 312.175781 772.121094 311.878906 772.027344 311.582031 771.921875 C 311.289062 771.8125 311.003906 771.6875 310.722656 771.542969 C 310.445312 771.402344 310.171875 771.242188 309.914062 771.066406 C 309.652344 770.894531 309.402344 770.703125 309.164062 770.5 C 308.925781 770.296875 308.699219 770.078125 308.488281 769.847656 C 308.273438 769.617188 308.074219 769.375 307.890625 769.121094 C 307.707031 768.867188 307.539062 768.601562 307.386719 768.328125 C 307.234375 768.054688 307.097656 767.773438 306.976562 767.480469 C 306.855469 767.191406 306.753906 766.894531 306.667969 766.59375 C 306.585938 766.292969 306.519531 765.984375 306.46875 765.675781 C 306.421875 765.367188 306.390625 765.054688 306.378906 764.742188 C 306.367188 764.425781 306.371094 764.113281 306.398438 763.800781 C 306.421875 763.488281 306.464844 763.179688 306.527344 762.871094 C 306.589844 762.5625 306.667969 762.257812 306.765625 761.960938 C 306.765625 761.480469 314.746094 736.261719 306.765625 691.488281 C 306.058594 691.679688 305.335938 691.773438 304.605469 691.769531 C 303.871094 691.761719 303.152344 691.65625 302.449219 691.453125 C 301.746094 691.25 301.082031 690.953125 300.460938 690.566406 C 299.839844 690.179688 299.28125 689.714844 298.785156 689.175781 L 280.589844 668.503906 C 277.636719 668.503906 274.765625 669.140625 271.894531 669.382812 L 257.289062 693.324219 C 256.933594 693.914062 256.503906 694.445312 256.007812 694.921875 C 255.511719 695.402344 254.964844 695.808594 254.363281 696.144531 C 253.761719 696.480469 253.128906 696.734375 252.460938 696.902344 C 251.792969 697.074219 251.117188 697.160156 250.425781 697.15625 C 249.65625 697.269531 248.882812 697.269531 248.113281 697.15625 L 200.234375 682.949219 C 199.378906 682.699219 198.585938 682.320312 197.859375 681.804688 C 197.132812 681.289062 196.507812 680.671875 195.988281 679.949219 C 195.464844 679.226562 195.078125 678.4375 194.820312 677.585938 C 194.5625 676.730469 194.453125 675.859375 194.488281 674.96875 L 195.605469 646.714844 C 193.292969 644.960938 190.976562 643.125 188.824219 641.207031 L 161.371094 647.992188 C 160.511719 648.203125 159.640625 648.269531 158.757812 648.191406 C 157.875 648.109375 157.03125 647.890625 156.21875 647.527344 C 155.410156 647.167969 154.683594 646.683594 154.035156 646.082031 C 153.386719 645.476562 152.851562 644.785156 152.433594 644.003906 L 128.496094 600.347656 C 128.074219 599.566406 127.789062 598.742188 127.644531 597.867188 C 127.496094 596.992188 127.496094 596.117188 127.640625 595.246094 C 127.785156 594.371094 128.066406 593.542969 128.488281 592.761719 C 128.90625 591.980469 129.441406 591.292969 130.089844 590.6875 L 150.839844 571.453125 C 150.839844 568.582031 150.121094 565.707031 149.960938 562.835938 L 126.023438 548.152344 C 125.269531 547.664062 124.621094 547.066406 124.070312 546.363281 C 123.519531 545.65625 123.101562 544.882812 122.808594 544.035156 C 122.519531 543.1875 122.378906 542.316406 122.382812 541.421875 C 122.382812 540.527344 122.535156 539.65625 122.832031 538.8125 L 137.113281 490.925781 C 137.371094 490.078125 137.757812 489.292969 138.273438 488.574219 C 138.792969 487.855469 139.410156 487.238281 140.132812 486.726562 C 140.855469 486.214844 141.640625 485.832031 142.492188 485.582031 C 143.339844 485.328125 144.207031 485.222656 145.09375 485.261719 L 173.34375 486.296875 C 175.097656 483.984375 176.933594 481.75 178.847656 479.515625 L 172.144531 452.058594 C 171.941406 451.210938 171.878906 450.347656 171.957031 449.476562 C 172.035156 448.605469 172.25 447.769531 172.605469 446.96875 C 172.957031 446.167969 173.429688 445.445312 174.019531 444.800781 C 174.609375 444.15625 175.289062 443.621094 176.054688 443.199219 L 189.0625 436.175781 C 181.632812 411.4375 177.296875 386.164062 176.054688 360.359375 L 167.515625 360.359375 C 167.066406 360.371094 166.621094 360.347656 166.175781 360.289062 C 165.726562 360.226562 165.289062 360.128906 164.863281 359.992188 C 164.433594 359.855469 164.019531 359.683594 163.617188 359.480469 C 163.21875 359.273438 162.835938 359.035156 162.476562 358.765625 C 162.117188 358.496094 161.78125 358.199219 161.472656 357.871094 C 161.164062 357.542969 160.882812 357.195312 160.632812 356.820312 C 160.382812 356.445312 160.164062 356.054688 159.980469 355.640625 C 159.796875 355.230469 159.648438 354.808594 159.539062 354.371094 L 151.160156 322.449219 C 147.601562 321.191406 144.117188 319.753906 140.707031 318.140625 L 111.898438 335.058594 C 111.136719 335.5 110.324219 335.808594 109.457031 335.980469 C 108.59375 336.152344 107.726562 336.179688 106.851562 336.0625 C 105.980469 335.949219 105.148438 335.695312 104.359375 335.304688 C 103.570312 334.914062 102.863281 334.40625 102.242188 333.78125 L 61.945312 293.398438 C 61.328125 292.769531 60.824219 292.0625 60.441406 291.269531 C 60.058594 290.480469 59.8125 289.644531 59.703125 288.773438 C 59.597656 287.898438 59.632812 287.03125 59.808594 286.171875 C 59.988281 285.308594 60.300781 284.5 60.746094 283.742188 L 77.664062 254.929688 C 76.050781 251.519531 74.613281 248.03125 73.355469 244.472656 L 41.4375 236.492188 C 41 236.382812 40.578125 236.234375 40.167969 236.050781 C 39.753906 235.863281 39.363281 235.648438 38.988281 235.398438 C 38.617188 235.148438 38.265625 234.867188 37.9375 234.558594 C 37.613281 234.25 37.3125 233.914062 37.042969 233.554688 C 36.773438 233.191406 36.535156 232.8125 36.328125 232.414062 C 36.125 232.011719 35.953125 231.597656 35.816406 231.167969 C 35.683594 230.738281 35.582031 230.300781 35.523438 229.855469 C 35.460938 229.410156 35.4375 228.960938 35.453125 228.511719 L 35.453125 171.050781 C 35.394531 170.15625 35.480469 169.277344 35.71875 168.414062 C 35.957031 167.550781 36.328125 166.75 36.835938 166.011719 C 37.339844 165.273438 37.953125 164.636719 38.675781 164.105469 C 39.394531 163.574219 40.183594 163.175781 41.039062 162.910156 Z M 324.71875 756.292969 L 557.890625 756.292969 L 555.734375 639.132812 C 555.714844 638.808594 555.71875 638.480469 555.738281 638.152344 C 555.761719 637.828125 555.804688 637.503906 555.863281 637.183594 C 555.925781 636.859375 556.007812 636.542969 556.105469 636.234375 C 556.207031 635.921875 556.328125 635.617188 556.464844 635.320312 C 556.601562 635.023438 556.757812 634.738281 556.929688 634.460938 C 557.105469 634.179688 557.292969 633.914062 557.5 633.660156 C 557.707031 633.40625 557.925781 633.164062 558.160156 632.9375 C 558.398438 632.710938 558.644531 632.5 558.90625 632.304688 C 559.167969 632.105469 559.441406 631.925781 559.722656 631.761719 C 560.007812 631.601562 560.300781 631.457031 560.601562 631.328125 C 560.902344 631.199219 561.210938 631.09375 561.527344 631.003906 C 561.839844 630.914062 562.160156 630.84375 562.484375 630.792969 C 562.804688 630.746094 563.132812 630.714844 563.457031 630.703125 C 563.785156 630.695312 564.113281 630.703125 564.4375 630.734375 C 564.761719 630.765625 565.085938 630.816406 565.40625 630.886719 C 565.726562 630.953125 566.039062 631.042969 566.347656 631.152344 C 603.851562 644.480469 668.488281 657.171875 682.136719 634.503906 C 699.292969 606.171875 697.617188 510 695.542969 475.363281 C 695.527344 474.914062 695.550781 474.464844 695.613281 474.019531 C 695.675781 473.574219 695.773438 473.136719 695.90625 472.707031 C 696.042969 472.277344 696.214844 471.863281 696.417969 471.464844 C 696.625 471.0625 696.863281 470.683594 697.132812 470.324219 C 697.402344 469.960938 697.703125 469.628906 698.027344 469.320312 C 698.355469 469.007812 698.707031 468.730469 699.078125 468.480469 C 699.453125 468.226562 699.847656 468.011719 700.257812 467.828125 C 700.667969 467.644531 701.089844 467.496094 701.527344 467.382812 C 720.199219 462.675781 749.40625 450.941406 753.234375 440.804688 C 754.910156 430.269531 718.285156 381.027344 683.011719 341.683594 C 681.898438 340.394531 681.234375 338.902344 681.019531 337.214844 C 681.019531 336.015625 667.691406 217.5 613.03125 163.226562 C 547.035156 97.226562 461.414062 78.390625 350.175781 105.765625 C 344.367188 107.230469 338.648438 108.988281 333.019531 111.03125 C 333.035156 112.507812 332.6875 113.890625 331.980469 115.183594 L 315.0625 143.992188 C 316.679688 147.40625 318.117188 150.890625 319.371094 154.449219 L 351.292969 162.429688 C 351.726562 162.542969 352.152344 162.691406 352.5625 162.875 C 352.972656 163.058594 353.363281 163.273438 353.738281 163.527344 C 354.113281 163.777344 354.464844 164.054688 354.789062 164.367188 C 355.117188 164.675781 355.414062 165.007812 355.683594 165.371094 C 355.957031 165.730469 356.191406 166.109375 356.398438 166.511719 C 356.605469 166.910156 356.773438 167.324219 356.910156 167.753906 C 357.046875 168.183594 357.144531 168.621094 357.207031 169.066406 C 357.269531 169.511719 357.292969 169.960938 357.277344 170.410156 L 357.277344 227.875 C 357.292969 228.324219 357.269531 228.773438 357.207031 229.21875 C 357.144531 229.664062 357.046875 230.101562 356.910156 230.53125 C 356.773438 230.960938 356.605469 231.375 356.398438 231.773438 C 356.191406 232.175781 355.957031 232.554688 355.683594 232.914062 C 355.414062 233.273438 355.117188 233.609375 354.789062 233.917969 C 354.464844 234.230469 354.113281 234.507812 353.738281 234.757812 C 353.363281 235.007812 352.972656 235.226562 352.5625 235.410156 C 352.152344 235.59375 351.726562 235.742188 351.292969 235.855469 L 319.371094 243.835938 C 318.097656 247.425781 316.660156 250.859375 315.0625 254.289062 L 331.980469 283.101562 C 332.230469 283.507812 332.441406 283.929688 332.613281 284.371094 C 332.785156 284.816406 332.917969 285.269531 333.011719 285.734375 C 333.101562 286.199219 333.152344 286.671875 333.160156 287.144531 C 333.167969 287.621094 333.132812 288.09375 333.058594 288.5625 C 332.980469 289.03125 332.863281 289.488281 332.707031 289.9375 C 332.546875 290.382812 332.351562 290.816406 332.117188 291.226562 C 331.882812 291.640625 331.613281 292.027344 331.308594 292.394531 C 331.003906 292.757812 330.667969 293.09375 330.304688 293.398438 L 290.40625 333.703125 C 289.785156 334.324219 289.078125 334.832031 288.289062 335.226562 C 287.5 335.617188 286.667969 335.867188 285.796875 335.984375 C 284.921875 336.101562 284.054688 336.070312 283.191406 335.898438 C 282.324219 335.726562 281.511719 335.421875 280.75 334.980469 L 251.945312 318.058594 C 248.511719 319.65625 245.082031 321.089844 241.488281 322.367188 L 233.511719 354.292969 C 233.398438 354.726562 233.25 355.152344 233.066406 355.5625 C 232.882812 355.972656 232.664062 356.367188 232.414062 356.738281 C 232.164062 357.113281 231.882812 357.464844 231.574219 357.789062 C 231.265625 358.117188 230.929688 358.417969 230.570312 358.6875 C 230.210938 358.957031 229.832031 359.195312 229.429688 359.398438 C 229.03125 359.605469 228.617188 359.777344 228.1875 359.910156 C 227.757812 360.046875 227.320312 360.144531 226.875 360.207031 C 226.429688 360.269531 225.980469 360.292969 225.53125 360.277344 L 192.574219 360.277344 C 193.554688 383.632812 197.199219 406.566406 203.507812 429.074219 L 219.464844 420.214844 C 220.242188 419.804688 221.0625 419.527344 221.925781 419.386719 C 222.792969 419.242188 223.660156 419.246094 224.523438 419.390625 C 225.390625 419.535156 226.210938 419.8125 226.984375 420.226562 C 227.757812 420.644531 228.441406 421.171875 229.042969 421.8125 L 248.273438 442.5625 C 251.144531 442.5625 254.097656 441.84375 256.972656 441.683594 L 271.574219 417.742188 C 272.035156 416.980469 272.605469 416.3125 273.285156 415.738281 C 273.96875 415.167969 274.726562 414.722656 275.558594 414.40625 C 276.390625 414.085938 277.25 413.914062 278.140625 413.882812 C 279.027344 413.851562 279.898438 413.96875 280.75 414.230469 L 328.230469 428.4375 C 329.085938 428.683594 329.878906 429.066406 330.605469 429.582031 C 331.332031 430.09375 331.957031 430.714844 332.476562 431.4375 C 333 432.160156 333.386719 432.949219 333.644531 433.800781 C 333.902344 434.65625 334.011719 435.527344 333.976562 436.417969 L 332.859375 464.667969 C 335.214844 466.390625 337.476562 468.226562 339.640625 470.175781 L 367.09375 463.390625 C 367.953125 463.179688 368.824219 463.117188 369.707031 463.195312 C 370.589844 463.273438 371.433594 463.496094 372.246094 463.855469 C 373.054688 464.21875 373.78125 464.699219 374.429688 465.304688 C 375.078125 465.910156 375.613281 466.601562 376.03125 467.382812 L 399.96875 510.480469 C 400.390625 511.257812 400.675781 512.085938 400.820312 512.960938 C 400.96875 513.832031 400.96875 514.707031 400.824219 515.582031 C 400.679688 516.457031 400.398438 517.285156 399.976562 518.0625 C 399.558594 518.84375 399.023438 519.535156 398.375 520.136719 L 377.625 539.371094 C 377.625 542.246094 378.34375 545.117188 378.503906 547.992188 L 402.441406 562.675781 C 403.195312 563.132812 403.855469 563.699219 404.421875 564.378906 C 404.988281 565.054688 405.433594 565.804688 405.75 566.625 C 406.066406 567.449219 406.242188 568.300781 406.277344 569.183594 C 406.3125 570.066406 406.207031 570.929688 405.953125 571.773438 L 391.75 619.660156 C 391.492188 620.507812 391.105469 621.292969 390.589844 622.011719 C 390.074219 622.730469 389.453125 623.347656 388.730469 623.859375 C 388.007812 624.375 387.222656 624.753906 386.371094 625.007812 C 385.523438 625.257812 384.65625 625.363281 383.769531 625.328125 L 355.441406 624.289062 C 353.765625 626.605469 351.929688 628.839844 350.015625 630.992188 L 356.71875 658.449219 C 356.929688 659.308594 356.996094 660.179688 356.914062 661.0625 C 356.835938 661.945312 356.617188 662.792969 356.253906 663.601562 C 355.894531 664.410156 355.410156 665.140625 354.808594 665.789062 C 354.203125 666.4375 353.511719 666.96875 352.730469 667.386719 L 322.324219 683.507812 C 324.890625 695.46875 326.375 707.566406 326.777344 719.792969 C 327.179688 732.023438 326.492188 744.1875 324.71875 756.292969 Z M 184.035156 499.226562 C 183.660156 499.785156 183.21875 500.289062 182.714844 500.734375 C 182.207031 501.183594 181.65625 501.558594 181.054688 501.867188 C 180.457031 502.171875 179.828125 502.402344 179.167969 502.546875 C 178.511719 502.695312 177.847656 502.757812 177.171875 502.738281 L 150.757812 501.703125 L 140.066406 537.457031 L 162.730469 551.101562 C 163.304688 551.453125 163.828125 551.871094 164.300781 552.355469 C 164.769531 552.839844 165.175781 553.375 165.507812 553.960938 C 165.84375 554.546875 166.101562 555.167969 166.277344 555.816406 C 166.457031 556.46875 166.550781 557.132812 166.558594 557.808594 C 166.648438 562.820312 167.125 567.792969 167.996094 572.730469 C 168.117188 573.390625 168.152344 574.050781 168.109375 574.71875 C 168.0625 575.382812 167.933594 576.035156 167.726562 576.667969 C 167.515625 577.304688 167.230469 577.902344 166.871094 578.464844 C 166.511719 579.027344 166.089844 579.539062 165.601562 579.996094 L 146.289062 597.953125 L 163.925781 630.753906 L 189.542969 624.449219 C 190.199219 624.28125 190.867188 624.199219 191.546875 624.203125 C 192.226562 624.207031 192.894531 624.296875 193.550781 624.472656 C 194.207031 624.648438 194.832031 624.902344 195.421875 625.234375 C 196.015625 625.570312 196.554688 625.972656 197.042969 626.445312 C 200.625 629.941406 204.484375 633.109375 208.613281 635.941406 C 209.164062 636.324219 209.660156 636.765625 210.097656 637.273438 C 210.539062 637.78125 210.90625 638.332031 211.207031 638.933594 C 211.507812 639.535156 211.726562 640.160156 211.871094 640.816406 C 212.011719 641.472656 212.070312 642.136719 212.042969 642.804688 L 211.085938 669.140625 L 246.835938 679.835938 L 260.480469 657.25 C 260.828125 656.679688 261.242188 656.160156 261.71875 655.691406 C 262.199219 655.226562 262.726562 654.824219 263.304688 654.488281 C 263.882812 654.15625 264.496094 653.898438 265.136719 653.714844 C 265.78125 653.535156 266.4375 653.4375 267.105469 653.417969 C 272.121094 653.308594 277.09375 652.804688 282.027344 651.902344 L 283.464844 651.902344 C 284.582031 651.894531 285.65625 652.113281 286.683594 652.558594 C 287.714844 653.003906 288.609375 653.636719 289.367188 654.457031 L 307.324219 673.769531 L 340.039062 656.132812 L 333.816406 630.515625 C 333.652344 629.863281 333.570312 629.207031 333.570312 628.535156 C 333.574219 627.867188 333.65625 627.207031 333.824219 626.558594 C 333.992188 625.910156 334.238281 625.292969 334.558594 624.703125 C 334.882812 624.117188 335.273438 623.582031 335.730469 623.09375 C 339.210938 619.464844 342.375 615.578125 345.226562 611.441406 C 345.609375 610.886719 346.054688 610.394531 346.558594 609.953125 C 347.066406 609.515625 347.621094 609.144531 348.21875 608.84375 C 348.820312 608.542969 349.445312 608.324219 350.101562 608.183594 C 350.757812 608.039062 351.421875 607.984375 352.089844 608.007812 L 378.183594 608.804688 L 388.878906 573.132812 L 366.292969 559.402344 C 365.722656 559.054688 365.203125 558.644531 364.738281 558.164062 C 364.269531 557.6875 363.867188 557.160156 363.535156 556.582031 C 363.199219 556 362.941406 555.390625 362.761719 554.746094 C 362.578125 554.105469 362.480469 553.449219 362.464844 552.78125 C 362.324219 547.761719 361.792969 542.789062 360.867188 537.855469 C 360.753906 537.195312 360.722656 536.53125 360.773438 535.863281 C 360.824219 535.191406 360.957031 534.542969 361.175781 533.90625 C 361.390625 533.273438 361.683594 532.675781 362.050781 532.113281 C 362.417969 531.550781 362.847656 531.042969 363.34375 530.59375 L 382.972656 512.636719 L 365.257812 479.832031 L 339.640625 486.136719 C 338.988281 486.296875 338.328125 486.375 337.65625 486.367188 C 336.984375 486.359375 336.324219 486.265625 335.675781 486.09375 C 335.027344 485.917969 334.410156 485.667969 333.824219 485.335938 C 333.238281 485.007812 332.703125 484.609375 332.21875 484.144531 C 328.636719 480.644531 324.78125 477.480469 320.648438 474.644531 C 320.089844 474.269531 319.589844 473.828125 319.140625 473.324219 C 318.695312 472.820312 318.316406 472.265625 318.011719 471.667969 C 317.703125 471.066406 317.476562 470.4375 317.328125 469.777344 C 317.179688 469.121094 317.117188 468.457031 317.136719 467.78125 L 318.175781 441.445312 L 282.425781 430.75 L 268.78125 453.015625 C 268.4375 453.597656 268.03125 454.121094 267.554688 454.597656 C 267.078125 455.074219 266.550781 455.480469 265.972656 455.824219 C 265.394531 456.164062 264.78125 456.429688 264.132812 456.617188 C 263.488281 456.804688 262.828125 456.90625 262.15625 456.929688 C 257.140625 456.996094 252.164062 457.503906 247.234375 458.445312 C 246.570312 458.566406 245.898438 458.605469 245.222656 458.554688 C 244.546875 458.507812 243.886719 458.375 243.246094 458.15625 C 242.601562 457.941406 241.996094 457.648438 241.429688 457.277344 C 240.863281 456.90625 240.351562 456.472656 239.894531 455.96875 L 221.941406 437.054688 L 189.140625 454.773438 L 195.445312 480.390625 C 195.605469 481.042969 195.683594 481.707031 195.675781 482.378906 C 195.667969 483.050781 195.574219 483.710938 195.402344 484.359375 C 195.226562 485.007812 194.972656 485.625 194.644531 486.210938 C 194.3125 486.792969 193.917969 487.328125 193.453125 487.8125 C 190.027344 491.382812 186.890625 495.1875 184.035156 499.226562 Z M 51.011719 221.570312 L 81.496094 229.550781 C 82.152344 229.710938 82.777344 229.953125 83.371094 230.277344 C 83.96875 230.597656 84.511719 230.992188 85.007812 231.449219 C 85.503906 231.910156 85.933594 232.425781 86.296875 232.996094 C 86.664062 233.566406 86.949219 234.175781 87.160156 234.816406 C 88.949219 240.324219 91.183594 245.644531 93.863281 250.777344 C 94.214844 251.386719 94.480469 252.027344 94.660156 252.703125 C 94.84375 253.378906 94.933594 254.070312 94.933594 254.769531 C 94.933594 255.46875 94.84375 256.160156 94.660156 256.835938 C 94.480469 257.511719 94.214844 258.152344 93.863281 258.761719 L 77.902344 285.976562 L 109.824219 317.898438 L 137.035156 301.9375 C 137.640625 301.585938 138.28125 301.320312 138.957031 301.140625 C 139.636719 300.957031 140.324219 300.867188 141.023438 300.867188 C 141.726562 300.867188 142.414062 300.957031 143.089844 301.140625 C 143.765625 301.320312 144.40625 301.585938 145.015625 301.9375 C 150.148438 304.617188 155.464844 306.851562 160.972656 308.640625 C 161.613281 308.847656 162.214844 309.128906 162.78125 309.488281 C 163.347656 309.847656 163.863281 310.269531 164.324219 310.757812 C 164.785156 311.246094 165.175781 311.785156 165.5 312.371094 C 165.824219 312.960938 166.070312 313.578125 166.242188 314.226562 L 174.21875 344.796875 L 218.589844 344.796875 L 226.566406 314.148438 C 226.738281 313.5 226.984375 312.878906 227.308594 312.292969 C 227.632812 311.707031 228.023438 311.167969 228.484375 310.679688 C 228.945312 310.191406 229.460938 309.769531 230.027344 309.410156 C 230.59375 309.050781 231.195312 308.769531 231.835938 308.5625 C 237.339844 306.773438 242.660156 304.539062 247.792969 301.859375 C 248.402344 301.507812 249.042969 301.242188 249.71875 301.058594 C 250.394531 300.878906 251.082031 300.789062 251.785156 300.789062 C 252.484375 300.789062 253.171875 300.878906 253.847656 301.058594 C 254.527344 301.242188 255.167969 301.507812 255.773438 301.859375 L 282.984375 317.820312 L 314.90625 285.894531 L 298.945312 258.679688 C 298.59375 258.074219 298.328125 257.433594 298.148438 256.753906 C 297.964844 256.078125 297.875 255.390625 297.875 254.691406 C 297.875 253.988281 297.964844 253.300781 298.148438 252.625 C 298.328125 251.949219 298.59375 251.304688 298.945312 250.699219 C 301.625 245.566406 303.859375 240.246094 305.648438 234.738281 C 305.855469 234.097656 306.136719 233.496094 306.496094 232.929688 C 306.855469 232.363281 307.277344 231.847656 307.765625 231.386719 C 308.253906 230.925781 308.792969 230.535156 309.378906 230.210938 C 309.964844 229.886719 310.585938 229.640625 311.234375 229.46875 L 341.796875 221.488281 L 341.796875 176.796875 L 311.234375 168.816406 C 310.585938 168.644531 309.964844 168.398438 309.378906 168.074219 C 308.792969 167.75 308.253906 167.355469 307.765625 166.898438 C 307.277344 166.4375 306.855469 165.921875 306.496094 165.355469 C 306.136719 164.789062 305.855469 164.1875 305.648438 163.546875 C 303.859375 158.039062 301.625 152.71875 298.945312 147.585938 C 298.59375 146.980469 298.328125 146.335938 298.148438 145.660156 C 297.964844 144.984375 297.875 144.296875 297.875 143.59375 C 297.875 142.894531 297.964844 142.207031 298.148438 141.527344 C 298.328125 140.851562 298.59375 140.210938 298.945312 139.605469 L 314.90625 112.390625 L 282.984375 80.464844 L 255.773438 96.425781 C 255.167969 96.777344 254.527344 97.042969 253.847656 97.222656 C 253.171875 97.40625 252.484375 97.496094 251.785156 97.496094 C 251.082031 97.496094 250.394531 97.40625 249.71875 97.222656 C 249.042969 97.042969 248.402344 96.777344 247.792969 96.425781 C 242.660156 93.746094 237.339844 91.511719 231.835938 89.722656 C 231.214844 89.53125 230.625 89.269531 230.070312 88.933594 C 229.515625 88.597656 229.007812 88.199219 228.550781 87.742188 C 228.089844 87.28125 227.691406 86.773438 227.359375 86.21875 C 227.023438 85.664062 226.757812 85.074219 226.566406 84.457031 L 218.589844 53.96875 L 173.503906 53.96875 L 165.523438 84.457031 C 165.355469 85.105469 165.105469 85.722656 164.78125 86.3125 C 164.457031 86.898438 164.066406 87.4375 163.605469 87.925781 C 163.144531 88.414062 162.632812 88.835938 162.0625 89.195312 C 161.496094 89.554688 160.894531 89.835938 160.253906 90.042969 C 154.753906 91.878906 149.4375 94.140625 144.296875 96.828125 C 143.6875 97.175781 143.046875 97.441406 142.371094 97.625 C 141.695312 97.804688 141.007812 97.894531 140.304688 97.894531 C 139.605469 97.894531 138.917969 97.804688 138.242188 97.625 C 137.5625 97.441406 136.921875 97.175781 136.316406 96.828125 L 109.105469 80.863281 L 77.1875 112.789062 L 93.144531 140.003906 C 93.496094 140.609375 93.761719 141.25 93.941406 141.929688 C 94.125 142.605469 94.214844 143.292969 94.214844 143.992188 C 94.214844 144.695312 94.125 145.382812 93.941406 146.058594 C 93.761719 146.734375 93.496094 147.378906 93.144531 147.984375 C 90.453125 153.113281 88.21875 158.433594 86.441406 163.945312 C 86.230469 164.589844 85.945312 165.195312 85.582031 165.765625 C 85.214844 166.335938 84.785156 166.851562 84.289062 167.3125 C 83.792969 167.773438 83.25 168.164062 82.65625 168.488281 C 82.058594 168.808594 81.433594 169.050781 80.777344 169.214844 L 50.292969 177.195312 Z M 51.011719 221.570312 " fill-opacity="1" fill-rule="nonzero"/></g><path fill="#fcd34d" d="M 196.324219 129.230469 C 197.472656 129.226562 198.621094 129.253906 199.769531 129.308594 C 200.914062 129.363281 202.058594 129.449219 203.203125 129.558594 C 204.347656 129.671875 205.484375 129.808594 206.621094 129.976562 C 207.757812 130.144531 208.890625 130.339844 210.015625 130.5625 C 211.144531 130.785156 212.261719 131.035156 213.378906 131.3125 C 214.492188 131.59375 215.597656 131.898438 216.699219 132.230469 C 217.796875 132.5625 218.886719 132.921875 219.96875 133.308594 C 221.050781 133.691406 222.125 134.105469 223.183594 134.542969 C 224.246094 134.980469 225.296875 135.445312 226.335938 135.9375 C 227.375 136.425781 228.398438 136.941406 229.414062 137.484375 C 230.425781 138.023438 231.425781 138.589844 232.410156 139.179688 C 233.398438 139.769531 234.367188 140.382812 235.324219 141.019531 C 236.277344 141.65625 237.21875 142.316406 238.140625 143 C 239.0625 143.683594 239.96875 144.390625 240.859375 145.117188 C 241.746094 145.84375 242.617188 146.59375 243.46875 147.363281 C 244.320312 148.136719 245.152344 148.925781 245.964844 149.738281 C 246.777344 150.550781 247.570312 151.382812 248.339844 152.230469 C 249.113281 153.082031 249.863281 153.953125 250.59375 154.839844 C 251.324219 155.726562 252.03125 156.632812 252.714844 157.554688 C 253.398438 158.476562 254.0625 159.414062 254.699219 160.367188 C 255.339844 161.324219 255.953125 162.292969 256.542969 163.277344 C 257.136719 164.261719 257.703125 165.261719 258.242188 166.273438 C 258.785156 167.285156 259.304688 168.3125 259.792969 169.351562 C 260.285156 170.386719 260.753906 171.4375 261.191406 172.5 C 261.632812 173.558594 262.046875 174.628906 262.433594 175.710938 C 262.820312 176.792969 263.183594 177.882812 263.515625 178.984375 C 263.851562 180.082031 264.15625 181.1875 264.4375 182.300781 C 264.714844 183.417969 264.96875 184.535156 265.191406 185.664062 C 265.417969 186.789062 265.613281 187.921875 265.78125 189.058594 C 265.953125 190.191406 266.09375 191.332031 266.207031 192.476562 C 266.320312 193.617188 266.402344 194.765625 266.460938 195.910156 C 266.519531 197.058594 266.546875 198.207031 266.546875 199.355469 C 266.546875 200.503906 266.519531 201.652344 266.464844 202.800781 C 266.40625 203.945312 266.324219 205.089844 266.210938 206.234375 C 266.097656 207.378906 265.957031 208.519531 265.789062 209.652344 C 265.621094 210.789062 265.425781 211.921875 265.203125 213.046875 C 264.980469 214.175781 264.726562 215.296875 264.449219 216.410156 C 264.171875 217.523438 263.863281 218.628906 263.53125 219.730469 C 263.199219 220.828125 262.839844 221.917969 262.453125 223 C 262.066406 224.082031 261.652344 225.15625 261.210938 226.214844 C 260.773438 227.277344 260.308594 228.328125 259.816406 229.367188 C 259.328125 230.402344 258.808594 231.429688 258.269531 232.441406 C 257.726562 233.457031 257.160156 234.453125 256.570312 235.441406 C 255.980469 236.425781 255.367188 237.394531 254.730469 238.351562 C 254.089844 239.304688 253.429688 240.246094 252.746094 241.167969 C 252.0625 242.089844 251.355469 242.996094 250.628906 243.882812 C 249.898438 244.773438 249.148438 245.640625 248.378906 246.492188 C 247.605469 247.34375 246.8125 248.175781 246.003906 248.988281 C 245.191406 249.800781 244.359375 250.589844 243.507812 251.363281 C 242.65625 252.132812 241.789062 252.882812 240.898438 253.613281 C 240.011719 254.339844 239.105469 255.046875 238.183594 255.730469 C 237.261719 256.417969 236.324219 257.078125 235.367188 257.714844 C 234.414062 258.351562 233.441406 258.96875 232.457031 259.558594 C 231.472656 260.148438 230.472656 260.714844 229.460938 261.253906 C 228.445312 261.796875 227.421875 262.3125 226.382812 262.804688 C 225.34375 263.296875 224.296875 263.761719 223.234375 264.199219 C 222.171875 264.640625 221.101562 265.050781 220.019531 265.4375 C 218.9375 265.824219 217.847656 266.183594 216.75 266.519531 C 215.648438 266.851562 214.542969 267.15625 213.429688 267.4375 C 212.316406 267.714844 211.195312 267.964844 210.070312 268.191406 C 208.941406 268.414062 207.8125 268.609375 206.675781 268.777344 C 205.539062 268.945312 204.398438 269.085938 203.257812 269.199219 C 202.113281 269.3125 200.96875 269.394531 199.820312 269.453125 C 198.671875 269.507812 197.527344 269.535156 196.378906 269.535156 C 195.230469 269.535156 194.082031 269.503906 192.933594 269.449219 C 191.785156 269.390625 190.640625 269.308594 189.5 269.195312 C 188.355469 269.082031 187.214844 268.941406 186.082031 268.769531 C 184.945312 268.601562 183.8125 268.40625 182.6875 268.179688 C 181.5625 267.957031 180.441406 267.703125 179.328125 267.421875 C 178.214844 267.144531 177.105469 266.835938 176.007812 266.503906 C 174.910156 266.167969 173.820312 265.808594 172.738281 265.421875 C 171.65625 265.035156 170.585938 264.621094 169.523438 264.179688 C 168.464844 263.738281 167.414062 263.273438 166.375 262.78125 C 165.339844 262.289062 164.3125 261.773438 163.300781 261.230469 C 162.289062 260.6875 161.289062 260.121094 160.304688 259.53125 C 159.320312 258.941406 158.351562 258.324219 157.394531 257.6875 C 156.441406 257.046875 155.503906 256.386719 154.582031 255.699219 C 153.660156 255.015625 152.753906 254.308594 151.867188 253.578125 C 150.980469 252.847656 150.113281 252.097656 149.261719 251.328125 C 148.410156 250.554688 147.578125 249.761719 146.769531 248.949219 C 145.957031 248.136719 145.164062 247.304688 144.394531 246.453125 C 143.625 245.601562 142.875 244.730469 142.148438 243.84375 C 141.417969 242.953125 140.714844 242.046875 140.03125 241.125 C 139.347656 240.203125 138.6875 239.261719 138.050781 238.308594 C 137.414062 237.351562 136.796875 236.378906 136.210938 235.394531 C 135.621094 234.410156 135.054688 233.410156 134.515625 232.394531 C 133.972656 231.382812 133.457031 230.355469 132.96875 229.316406 C 132.476562 228.277344 132.015625 227.226562 131.574219 226.167969 C 131.136719 225.105469 130.726562 224.035156 130.339844 222.953125 C 129.953125 221.871094 129.59375 220.777344 129.261719 219.679688 C 128.929688 218.578125 128.625 217.472656 128.347656 216.359375 C 128.066406 215.242188 127.816406 214.121094 127.59375 212.996094 C 127.371094 211.871094 127.175781 210.738281 127.011719 209.601562 C 126.84375 208.464844 126.703125 207.324219 126.59375 206.183594 C 126.480469 205.039062 126.398438 203.894531 126.34375 202.746094 C 126.289062 201.597656 126.261719 200.449219 126.261719 199.300781 C 126.261719 198.15625 126.292969 197.011719 126.351562 195.863281 C 126.40625 194.71875 126.492188 193.578125 126.605469 192.4375 C 126.71875 191.296875 126.859375 190.15625 127.03125 189.023438 C 127.199219 187.890625 127.394531 186.761719 127.621094 185.636719 C 127.84375 184.511719 128.097656 183.394531 128.378906 182.28125 C 128.65625 181.171875 128.960938 180.066406 129.296875 178.96875 C 129.628906 177.871094 129.988281 176.785156 130.375 175.707031 C 130.765625 174.625 131.175781 173.558594 131.617188 172.5 C 132.054688 171.441406 132.519531 170.390625 133.011719 169.355469 C 133.5 168.320312 134.015625 167.296875 134.558594 166.285156 C 135.097656 165.273438 135.664062 164.277344 136.253906 163.292969 C 136.84375 162.3125 137.457031 161.34375 138.09375 160.390625 C 138.730469 159.4375 139.390625 158.5 140.074219 157.578125 C 140.757812 156.660156 141.460938 155.753906 142.191406 154.871094 C 142.917969 153.984375 143.664062 153.117188 144.433594 152.265625 C 145.203125 151.417969 145.996094 150.585938 146.804688 149.777344 C 147.617188 148.964844 148.445312 148.175781 149.296875 147.40625 C 150.144531 146.636719 151.011719 145.886719 151.898438 145.160156 C 152.785156 144.433594 153.6875 143.726562 154.609375 143.042969 C 155.527344 142.359375 156.464844 141.699219 157.417969 141.0625 C 158.371094 140.425781 159.339844 139.8125 160.320312 139.222656 C 161.304688 138.632812 162.300781 138.066406 163.3125 137.527344 C 164.324219 136.984375 165.347656 136.46875 166.382812 135.980469 C 167.417969 135.488281 168.464844 135.023438 169.523438 134.585938 C 170.582031 134.144531 171.652344 133.730469 172.730469 133.34375 C 173.808594 132.957031 174.898438 132.597656 175.996094 132.265625 C 177.089844 131.929688 178.195312 131.625 179.308594 131.34375 C 180.417969 131.066406 181.539062 130.8125 182.660156 130.589844 C 183.785156 130.363281 184.914062 130.167969 186.046875 129.996094 C 187.179688 129.828125 188.320312 129.6875 189.460938 129.574219 C 190.601562 129.460938 191.742188 129.375 192.886719 129.316406 C 194.03125 129.257812 195.179688 129.230469 196.324219 129.230469 Z M 196.324219 253.492188 C 198.097656 253.496094 199.871094 253.410156 201.636719 253.238281 C 203.402344 253.066406 205.15625 252.808594 206.898438 252.464844 C 208.640625 252.121094 210.363281 251.695312 212.0625 251.179688 C 213.761719 250.667969 215.429688 250.074219 217.070312 249.394531 C 218.710938 248.71875 220.316406 247.960938 221.882812 247.128906 C 223.449219 246.292969 224.972656 245.382812 226.449219 244.398438 C 227.925781 243.414062 229.351562 242.359375 230.726562 241.234375 C 232.097656 240.109375 233.414062 238.921875 234.671875 237.667969 C 235.925781 236.414062 237.121094 235.101562 238.246094 233.730469 C 239.375 232.359375 240.433594 230.9375 241.421875 229.460938 C 242.410156 227.988281 243.320312 226.464844 244.160156 224.902344 C 245 223.335938 245.757812 221.734375 246.441406 220.09375 C 247.121094 218.457031 247.71875 216.785156 248.238281 215.089844 C 248.753906 213.390625 249.1875 211.671875 249.535156 209.929688 C 249.882812 208.1875 250.144531 206.433594 250.320312 204.667969 C 250.496094 202.902344 250.585938 201.128906 250.585938 199.355469 C 250.589844 197.578125 250.503906 195.808594 250.332031 194.042969 C 250.160156 192.273438 249.898438 190.519531 249.554688 188.777344 C 249.210938 187.039062 248.78125 185.316406 248.269531 183.617188 C 247.753906 181.917969 247.160156 180.246094 246.480469 178.605469 C 245.800781 176.964844 245.046875 175.363281 244.210938 173.796875 C 243.375 172.230469 242.464844 170.707031 241.480469 169.230469 C 240.496094 167.753906 239.4375 166.328125 238.3125 164.957031 C 237.1875 163.582031 236 162.269531 234.746094 161.011719 C 233.492188 159.753906 232.179688 158.5625 230.808594 157.4375 C 229.4375 156.308594 228.011719 155.25 226.535156 154.265625 C 225.0625 153.277344 223.542969 152.363281 221.976562 151.527344 C 220.410156 150.6875 218.808594 149.929688 217.167969 149.25 C 215.53125 148.570312 213.859375 147.96875 212.164062 147.453125 C 210.464844 146.9375 208.746094 146.503906 207.003906 146.160156 C 205.261719 145.8125 203.507812 145.550781 201.742188 145.375 C 199.976562 145.199219 198.207031 145.113281 196.429688 145.109375 C 194.65625 145.109375 192.886719 145.195312 191.117188 145.371094 C 189.351562 145.542969 187.597656 145.800781 185.855469 146.148438 C 184.117188 146.492188 182.394531 146.921875 180.695312 147.4375 C 178.996094 147.953125 177.328125 148.550781 175.6875 149.230469 C 174.046875 149.90625 172.445312 150.664062 170.878906 151.5 C 169.3125 152.335938 167.792969 153.25 166.316406 154.234375 C 164.839844 155.21875 163.414062 156.277344 162.042969 157.402344 C 160.671875 158.527344 159.355469 159.71875 158.101562 160.972656 C 156.84375 162.230469 155.652344 163.542969 154.527344 164.914062 C 153.402344 166.285156 152.34375 167.710938 151.359375 169.1875 C 150.371094 170.664062 149.460938 172.183594 148.621094 173.75 C 147.785156 175.316406 147.027344 176.917969 146.347656 178.558594 C 145.667969 180.199219 145.070312 181.867188 144.554688 183.566406 C 144.039062 185.265625 143.609375 186.984375 143.261719 188.726562 C 142.917969 190.46875 142.65625 192.222656 142.480469 193.988281 C 142.308594 195.753906 142.222656 197.527344 142.222656 199.300781 C 142.222656 201.074219 142.308594 202.84375 142.480469 204.609375 C 142.65625 206.375 142.914062 208.125 143.261719 209.863281 C 143.605469 211.601562 144.035156 213.320312 144.550781 215.019531 C 145.0625 216.714844 145.660156 218.382812 146.339844 220.023438 C 147.015625 221.660156 147.773438 223.261719 148.605469 224.824219 C 149.441406 226.390625 150.351562 227.910156 151.335938 229.382812 C 152.320312 230.859375 153.375 232.28125 154.496094 233.652344 C 155.621094 235.023438 156.808594 236.335938 158.0625 237.59375 C 159.316406 238.847656 160.625 240.039062 161.996094 241.164062 C 163.367188 242.289062 164.785156 243.347656 166.261719 244.332031 C 167.734375 245.320312 169.25 246.230469 170.8125 247.066406 C 172.375 247.90625 173.976562 248.664062 175.613281 249.34375 C 177.25 250.023438 178.917969 250.625 180.613281 251.140625 C 182.308594 251.65625 184.027344 252.089844 185.765625 252.4375 C 187.503906 252.785156 189.253906 253.046875 191.019531 253.222656 C 192.78125 253.402344 194.550781 253.488281 196.324219 253.492188 Z M 196.324219 253.492188 " fill-opacity="1" fill-rule="nonzero"/><path fill="#fcd34d" d="M 385.046875 396.113281 C 384.191406 396.328125 383.324219 396.398438 382.441406 396.324219 C 381.5625 396.25 380.71875 396.035156 379.910156 395.683594 C 379.101562 395.328125 378.371094 394.855469 377.722656 394.257812 C 377.070312 393.660156 376.535156 392.976562 376.109375 392.203125 L 354.804688 352.296875 C 354.382812 351.519531 354.097656 350.691406 353.949219 349.816406 C 353.804688 348.945312 353.804688 348.070312 353.949219 347.195312 C 354.09375 346.320312 354.375 345.492188 354.792969 344.714844 C 355.214844 343.933594 355.75 343.242188 356.398438 342.640625 L 374.832031 325.5625 C 374.832031 323.167969 374.273438 320.851562 374.113281 318.457031 L 352.570312 305.371094 C 351.816406 304.910156 351.15625 304.34375 350.589844 303.667969 C 350.023438 302.992188 349.578125 302.242188 349.261719 301.417969 C 348.945312 300.597656 348.769531 299.742188 348.734375 298.863281 C 348.699219 297.980469 348.804688 297.117188 349.058594 296.269531 L 362.226562 253.492188 C 362.480469 252.644531 362.867188 251.859375 363.382812 251.140625 C 363.902344 250.421875 364.523438 249.804688 365.242188 249.292969 C 365.964844 248.78125 366.753906 248.398438 367.601562 248.144531 C 368.453125 247.894531 369.320312 247.789062 370.203125 247.828125 L 395.339844 248.703125 C 396.777344 246.789062 398.292969 244.953125 399.808594 243.199219 L 393.824219 218.777344 C 393.613281 217.914062 393.546875 217.042969 393.628906 216.160156 C 393.707031 215.277344 393.925781 214.433594 394.289062 213.621094 C 394.648438 212.8125 395.132812 212.085938 395.738281 211.4375 C 396.339844 210.789062 397.03125 210.253906 397.816406 209.835938 L 437.316406 188.527344 C 438.089844 188.117188 438.910156 187.839844 439.777344 187.699219 C 440.640625 187.554688 441.507812 187.558594 442.375 187.703125 C 443.238281 187.847656 444.058594 188.125 444.832031 188.539062 C 445.605469 188.953125 446.292969 189.484375 446.890625 190.125 L 463.726562 208.800781 C 466.042969 208.800781 468.4375 208.242188 470.828125 208.082031 L 483.835938 186.53125 C 484.292969 185.777344 484.859375 185.117188 485.539062 184.550781 C 486.214844 183.984375 486.964844 183.542969 487.785156 183.226562 C 488.609375 182.90625 489.460938 182.730469 490.34375 182.695312 C 491.226562 182.660156 492.089844 182.769531 492.933594 183.019531 L 535.945312 195.949219 C 536.792969 196.207031 537.578125 196.59375 538.296875 197.109375 C 539.015625 197.628906 539.632812 198.246094 540.144531 198.96875 C 540.65625 199.691406 541.039062 200.476562 541.289062 201.328125 C 541.542969 202.179688 541.648438 203.046875 541.609375 203.929688 L 540.652344 229.070312 C 542.570312 230.507812 544.402344 232.023438 546.238281 233.621094 L 570.65625 227.554688 C 571.519531 227.34375 572.390625 227.277344 573.273438 227.355469 C 574.15625 227.4375 575 227.65625 575.808594 228.019531 C 576.617188 228.378906 577.347656 228.863281 577.996094 229.464844 C 578.644531 230.070312 579.175781 230.761719 579.59375 231.546875 L 600.902344 271.050781 C 601.324219 271.832031 601.605469 272.65625 601.753906 273.53125 C 601.898438 274.40625 601.902344 275.277344 601.757812 276.152344 C 601.613281 277.027344 601.328125 277.855469 600.910156 278.632812 C 600.488281 279.414062 599.953125 280.105469 599.304688 280.707031 L 580.792969 297.789062 C 580.792969 300.179688 581.351562 302.496094 581.511719 304.890625 L 603.054688 317.898438 C 603.808594 318.355469 604.46875 318.921875 605.035156 319.601562 C 605.601562 320.277344 606.042969 321.027344 606.363281 321.851562 C 606.679688 322.671875 606.855469 323.523438 606.890625 324.40625 C 606.925781 325.289062 606.816406 326.152344 606.566406 326.996094 L 593.640625 369.933594 C 593.382812 370.785156 592.996094 371.566406 592.480469 372.285156 C 591.960938 373.007812 591.34375 373.621094 590.621094 374.136719 C 589.898438 374.648438 589.109375 375.03125 588.261719 375.28125 C 587.410156 375.53125 586.542969 375.640625 585.660156 375.601562 L 560.523438 374.644531 C 559.085938 376.558594 557.648438 378.394531 556.054688 380.230469 L 561.71875 404.652344 C 561.933594 405.507812 562.003906 406.375 561.929688 407.257812 C 561.855469 408.136719 561.644531 408.980469 561.289062 409.789062 C 560.9375 410.597656 560.460938 411.328125 559.863281 411.980469 C 559.269531 412.628906 558.585938 413.167969 557.808594 413.589844 L 518.308594 434.902344 C 517.53125 435.324219 516.703125 435.605469 515.832031 435.753906 C 514.957031 435.898438 514.082031 435.902344 513.207031 435.757812 C 512.335938 435.613281 511.507812 435.328125 510.726562 434.910156 C 509.945312 434.488281 509.257812 433.953125 508.652344 433.304688 L 491.496094 414.867188 C 489.183594 414.867188 486.789062 415.425781 484.476562 415.585938 L 471.789062 437.054688 C 471.433594 437.636719 471.011719 438.167969 470.519531 438.640625 C 470.03125 439.113281 469.488281 439.519531 468.894531 439.855469 C 468.300781 440.191406 467.675781 440.445312 467.015625 440.621094 C 466.355469 440.792969 465.6875 440.882812 465.003906 440.886719 C 464.234375 441 463.460938 441 462.691406 440.886719 L 419.757812 428.035156 C 418.902344 427.789062 418.113281 427.40625 417.382812 426.890625 C 416.65625 426.378906 416.03125 425.757812 415.511719 425.035156 C 414.992188 424.3125 414.601562 423.523438 414.34375 422.671875 C 414.089844 421.816406 413.976562 420.945312 414.011719 420.054688 L 414.972656 394.914062 C 413.054688 393.480469 411.21875 391.960938 409.464844 390.367188 Z M 416.964844 375.601562 C 420.203125 378.726562 423.6875 381.546875 427.417969 384.0625 C 427.972656 384.445312 428.464844 384.886719 428.90625 385.394531 C 429.34375 385.902344 429.714844 386.453125 430.015625 387.054688 C 430.3125 387.652344 430.535156 388.28125 430.675781 388.9375 C 430.816406 389.59375 430.875 390.253906 430.851562 390.925781 L 429.972656 414.230469 L 461.09375 423.488281 L 473.144531 403.613281 C 473.496094 403.039062 473.914062 402.515625 474.394531 402.042969 C 474.878906 401.574219 475.414062 401.167969 476 400.835938 C 476.585938 400.5 477.207031 400.242188 477.859375 400.066406 C 478.507812 399.886719 479.171875 399.792969 479.847656 399.785156 C 484.328125 399.699219 488.769531 399.246094 493.171875 398.425781 L 494.609375 398.425781 C 495.730469 398.417969 496.804688 398.636719 497.832031 399.082031 C 498.859375 399.527344 499.753906 400.160156 500.515625 400.980469 L 516.472656 418.0625 L 545.121094 402.65625 L 539.535156 379.992188 C 539.375 379.339844 539.300781 378.675781 539.308594 378.003906 C 539.316406 377.332031 539.40625 376.671875 539.582031 376.023438 C 539.753906 375.375 540.007812 374.757812 540.339844 374.171875 C 540.667969 373.589844 541.066406 373.054688 541.53125 372.570312 C 544.652344 369.355469 547.472656 365.898438 549.988281 362.195312 C 550.371094 361.640625 550.816406 361.148438 551.320312 360.707031 C 551.828125 360.269531 552.382812 359.898438 552.980469 359.597656 C 553.582031 359.296875 554.207031 359.078125 554.863281 358.9375 C 555.519531 358.792969 556.183594 358.738281 556.851562 358.761719 L 580.152344 359.558594 L 589.410156 328.433594 L 569.699219 316.222656 C 569.128906 315.875 568.609375 315.464844 568.140625 314.984375 C 567.675781 314.507812 567.273438 313.980469 566.9375 313.398438 C 566.605469 312.820312 566.347656 312.210938 566.164062 311.566406 C 565.984375 310.921875 565.886719 310.265625 565.871094 309.597656 C 565.785156 305.117188 565.332031 300.675781 564.511719 296.269531 C 564.386719 295.609375 564.34375 294.9375 564.386719 294.265625 C 564.425781 293.589844 564.554688 292.933594 564.761719 292.289062 C 564.972656 291.648438 565.257812 291.042969 565.621094 290.472656 C 565.984375 289.902344 566.414062 289.390625 566.90625 288.929688 L 583.984375 272.964844 L 568.503906 244.316406 L 545.917969 249.902344 C 545.265625 250.054688 544.597656 250.125 543.925781 250.113281 C 543.253906 250.097656 542.589844 250 541.941406 249.820312 C 541.292969 249.636719 540.675781 249.378906 540.09375 249.039062 C 539.511719 248.703125 538.980469 248.296875 538.5 247.828125 C 535.25 244.75 531.792969 241.929688 528.125 239.367188 C 527.566406 238.988281 527.0625 238.546875 526.617188 238.042969 C 526.167969 237.539062 525.792969 236.988281 525.484375 236.386719 C 525.179688 235.785156 524.953125 235.15625 524.804688 234.5 C 524.65625 233.84375 524.59375 233.175781 524.613281 232.503906 L 525.492188 209.277344 L 494.371094 199.941406 L 481.921875 220.050781 C 481.574219 220.625 481.160156 221.144531 480.683594 221.609375 C 480.207031 222.078125 479.679688 222.480469 479.097656 222.8125 C 478.519531 223.148438 477.910156 223.40625 477.265625 223.585938 C 476.621094 223.769531 475.96875 223.867188 475.296875 223.882812 C 470.792969 223.972656 466.324219 224.425781 461.890625 225.238281 C 461.230469 225.355469 460.566406 225.386719 459.898438 225.335938 C 459.230469 225.285156 458.578125 225.148438 457.945312 224.933594 C 457.308594 224.71875 456.710938 224.425781 456.152344 224.058594 C 455.589844 223.691406 455.082031 223.261719 454.628906 222.765625 L 438.671875 205.765625 L 410.101562 221.570312 L 415.609375 244.15625 C 415.769531 244.808594 415.84375 245.46875 415.835938 246.140625 C 415.828125 246.8125 415.738281 247.472656 415.5625 248.121094 C 415.390625 248.769531 415.136719 249.386719 414.808594 249.972656 C 414.476562 250.558594 414.078125 251.09375 413.613281 251.578125 C 410.675781 254.671875 407.988281 257.96875 405.554688 261.472656 C 405.171875 262.023438 404.730469 262.519531 404.222656 262.960938 C 403.714844 263.398438 403.164062 263.769531 402.5625 264.070312 C 401.964844 264.367188 401.335938 264.589844 400.679688 264.730469 C 400.023438 264.871094 399.363281 264.929688 398.691406 264.90625 L 375.472656 264.027344 L 366.132812 295.152344 L 386.164062 307.363281 C 386.75 307.710938 387.28125 308.125 387.757812 308.605469 C 388.238281 309.089844 388.648438 309.621094 388.988281 310.210938 C 389.332031 310.796875 389.59375 311.414062 389.777344 312.070312 C 389.960938 312.722656 390.058594 313.390625 390.074219 314.070312 C 390.117188 318.550781 390.570312 322.996094 391.429688 327.398438 C 391.554688 328.0625 391.589844 328.734375 391.542969 329.410156 C 391.492188 330.085938 391.359375 330.746094 391.144531 331.386719 C 390.929688 332.03125 390.632812 332.636719 390.265625 333.203125 C 389.894531 333.769531 389.457031 334.28125 388.957031 334.738281 L 371.960938 350.699219 L 387.359375 379.351562 L 410.101562 373.605469 C 411.378906 373.339844 412.644531 373.382812 413.898438 373.734375 C 415.152344 374.085938 416.253906 374.710938 417.207031 375.601562 Z M 416.964844 375.601562 " fill-opacity="1" fill-rule="nonzero"/><path fill="#fcd34d" d="M 423.667969 295.632812 C 424.203125 293.859375 424.820312 292.117188 425.527344 290.40625 C 426.230469 288.695312 427.015625 287.019531 427.882812 285.386719 C 428.753906 283.75 429.699219 282.164062 430.722656 280.621094 C 431.75 279.078125 432.84375 277.589844 434.015625 276.15625 C 435.1875 274.722656 436.421875 273.351562 437.730469 272.039062 C 439.035156 270.726562 440.398438 269.480469 441.828125 268.300781 C 443.253906 267.121094 444.734375 266.015625 446.273438 264.984375 C 447.808594 263.949219 449.390625 262.996094 451.019531 262.117188 C 452.648438 261.238281 454.316406 260.445312 456.027344 259.730469 C 457.734375 259.015625 459.472656 258.386719 461.242188 257.84375 C 463.011719 257.300781 464.800781 256.84375 466.617188 256.476562 C 468.429688 256.109375 470.257812 255.832031 472.097656 255.644531 C 473.941406 255.457031 475.785156 255.359375 477.636719 255.351562 C 479.488281 255.34375 481.335938 255.429688 483.175781 255.605469 C 485.019531 255.777344 486.847656 256.042969 488.667969 256.394531 C 490.484375 256.75 492.277344 257.191406 494.050781 257.722656 C 495.65625 258.207031 497.234375 258.757812 498.789062 259.378906 C 500.34375 260.003906 501.867188 260.695312 503.359375 261.453125 C 504.855469 262.210938 506.3125 263.035156 507.730469 263.921875 C 509.152344 264.808594 510.53125 265.757812 511.867188 266.769531 C 513.199219 267.78125 514.488281 268.847656 515.730469 269.972656 C 516.972656 271.097656 518.160156 272.277344 519.296875 273.507812 C 520.429688 274.738281 521.511719 276.015625 522.53125 277.34375 C 523.554688 278.671875 524.515625 280.039062 525.417969 281.453125 C 526.316406 282.863281 527.152344 284.3125 527.925781 285.800781 C 528.695312 287.289062 529.402344 288.804688 530.039062 290.355469 C 530.675781 291.902344 531.242188 293.480469 531.738281 295.078125 C 532.234375 296.679688 532.660156 298.296875 533.011719 299.933594 C 533.363281 301.570312 533.644531 303.222656 533.851562 304.882812 C 534.054688 306.546875 534.1875 308.214844 534.246094 309.890625 C 534.304688 311.5625 534.285156 313.238281 534.195312 314.910156 C 534.105469 316.582031 533.9375 318.246094 533.699219 319.90625 C 533.460938 321.5625 533.148438 323.207031 532.761719 324.835938 C 532.378906 326.46875 531.921875 328.078125 531.390625 329.667969 C 530.863281 331.253906 530.265625 332.820312 529.597656 334.355469 C 528.929688 335.890625 528.195312 337.394531 527.394531 338.867188 C 526.59375 340.335938 525.730469 341.769531 524.800781 343.164062 C 523.871094 344.558594 522.882812 345.90625 521.835938 347.214844 C 520.785156 348.519531 519.679688 349.777344 518.519531 350.984375 C 517.359375 352.191406 516.148438 353.347656 514.886719 354.445312 C 513.621094 355.546875 512.3125 356.589844 510.957031 357.570312 C 509.601562 358.554688 508.207031 359.476562 506.769531 360.335938 C 505.332031 361.195312 503.855469 361.988281 502.347656 362.71875 C 500.839844 363.445312 499.304688 364.105469 497.738281 364.699219 C 496.167969 365.289062 494.578125 365.8125 492.964844 366.261719 C 491.351562 366.710938 489.722656 367.089844 488.074219 367.394531 C 486.429688 367.699219 484.773438 367.929688 483.105469 368.089844 C 481.4375 368.246094 479.765625 368.328125 478.089844 368.339844 C 476.996094 368.339844 475.898438 368.3125 474.800781 368.25 C 473.707031 368.191406 472.613281 368.097656 471.523438 367.972656 C 470.433594 367.847656 469.347656 367.691406 468.265625 367.503906 C 467.183594 367.3125 466.109375 367.09375 465.042969 366.84375 C 463.972656 366.59375 462.914062 366.3125 461.863281 366 C 460.808594 365.6875 459.769531 365.34375 458.738281 364.96875 C 457.703125 364.597656 456.683594 364.195312 455.675781 363.761719 C 454.667969 363.328125 453.671875 362.867188 452.691406 362.375 C 451.710938 361.886719 450.742188 361.367188 449.792969 360.820312 C 448.839844 360.273438 447.90625 359.699219 446.988281 359.097656 C 446.070312 358.496094 445.171875 357.867188 444.289062 357.214844 C 443.410156 356.558594 442.546875 355.878906 441.707031 355.175781 C 440.863281 354.472656 440.042969 353.742188 439.242188 352.992188 C 438.445312 352.238281 437.667969 351.464844 436.914062 350.667969 C 436.160156 349.871094 435.429688 349.050781 434.722656 348.210938 C 434.015625 347.371094 433.335938 346.511719 432.679688 345.632812 C 432.023438 344.753906 431.390625 343.855469 430.789062 342.941406 C 430.183594 342.023438 429.605469 341.089844 429.058594 340.140625 C 428.507812 339.191406 427.984375 338.226562 427.492188 337.246094 C 427 336.265625 426.535156 335.273438 426.097656 334.265625 C 425.664062 333.257812 425.257812 332.238281 424.882812 331.207031 C 424.503906 330.175781 424.160156 329.136719 423.84375 328.085938 C 423.527344 327.03125 423.242188 325.972656 422.988281 324.90625 C 422.734375 323.839844 422.511719 322.765625 422.320312 321.683594 C 422.128906 320.601562 421.96875 319.515625 421.84375 318.425781 C 421.714844 317.335938 421.617188 316.246094 421.554688 315.148438 C 421.488281 314.054688 421.457031 312.957031 421.457031 311.859375 C 421.457031 310.761719 421.488281 309.664062 421.550781 308.570312 C 421.613281 307.472656 421.710938 306.382812 421.835938 305.289062 C 421.964844 304.199219 422.121094 303.117188 422.3125 302.035156 C 422.503906 300.953125 422.722656 299.878906 422.976562 298.8125 C 423.230469 297.742188 423.515625 296.683594 423.828125 295.632812 Z M 465.960938 350.699219 C 468.515625 351.453125 471.117188 351.953125 473.769531 352.195312 C 476.421875 352.441406 479.070312 352.425781 481.71875 352.152344 C 484.367188 351.878906 486.964844 351.351562 489.507812 350.570312 C 492.054688 349.789062 494.5 348.769531 496.84375 347.507812 C 498.597656 346.554688 500.273438 345.480469 501.867188 344.277344 C 503.464844 343.078125 504.960938 341.765625 506.363281 340.34375 C 507.765625 338.921875 509.054688 337.40625 510.230469 335.792969 C 511.410156 334.179688 512.460938 332.488281 513.390625 330.722656 C 514.316406 328.953125 515.109375 327.125 515.769531 325.242188 C 516.425781 323.355469 516.941406 321.433594 517.316406 319.472656 C 517.6875 317.511719 517.917969 315.53125 517.996094 313.535156 C 518.078125 311.542969 518.015625 309.550781 517.800781 307.566406 C 517.589844 305.582031 517.230469 303.621094 516.730469 301.6875 C 516.226562 299.757812 515.585938 297.871094 514.804688 296.035156 C 514.027344 294.195312 513.113281 292.425781 512.074219 290.722656 C 511.03125 289.019531 509.867188 287.402344 508.589844 285.871094 C 507.308594 284.339844 505.921875 282.910156 504.429688 281.582031 C 502.9375 280.253906 501.355469 279.046875 499.683594 277.953125 C 498.015625 276.859375 496.273438 275.894531 494.457031 275.058594 C 492.644531 274.222656 490.78125 273.527344 488.863281 272.964844 C 485.085938 271.859375 481.230469 271.300781 477.292969 271.289062 C 476.210938 271.289062 475.132812 271.332031 474.054688 271.417969 C 472.976562 271.503906 471.902344 271.632812 470.835938 271.804688 C 469.765625 271.972656 468.707031 272.1875 467.65625 272.445312 C 466.605469 272.699219 465.566406 273 464.539062 273.339844 C 463.511719 273.675781 462.5 274.058594 461.503906 274.476562 C 460.507812 274.898438 459.527344 275.359375 458.570312 275.855469 C 457.609375 276.355469 456.671875 276.890625 455.753906 277.464844 C 454.835938 278.039062 453.945312 278.648438 453.074219 279.296875 C 452.207031 279.941406 451.367188 280.621094 450.554688 281.332031 C 449.738281 282.046875 448.957031 282.789062 448.199219 283.566406 C 447.445312 284.339844 446.726562 285.144531 446.035156 285.976562 C 445.34375 286.8125 444.691406 287.671875 444.070312 288.554688 C 443.449219 289.441406 442.863281 290.351562 442.316406 291.285156 C 441.765625 292.214844 441.257812 293.167969 440.785156 294.144531 C 440.3125 295.117188 439.878906 296.105469 439.488281 297.113281 C 439.09375 298.125 438.742188 299.144531 438.433594 300.179688 C 438.054688 301.460938 437.742188 302.753906 437.496094 304.0625 C 437.246094 305.371094 437.0625 306.6875 436.941406 308.015625 C 436.824219 309.34375 436.769531 310.671875 436.78125 312.003906 C 436.792969 313.335938 436.867188 314.664062 437.011719 315.988281 C 437.152344 317.316406 437.359375 318.628906 437.628906 319.933594 C 437.898438 321.238281 438.234375 322.527344 438.632812 323.796875 C 439.027344 325.070312 439.488281 326.320312 440.007812 327.546875 C 440.527344 328.773438 441.105469 329.96875 441.742188 331.140625 C 442.378906 332.308594 443.074219 333.445312 443.820312 334.546875 C 444.570312 335.648438 445.371094 336.710938 446.226562 337.734375 C 447.078125 338.757812 447.980469 339.738281 448.929688 340.671875 C 449.878906 341.605469 450.871094 342.492188 451.910156 343.328125 C 452.945312 344.164062 454.019531 344.949219 455.132812 345.679688 C 456.246094 346.414062 457.394531 347.085938 458.574219 347.707031 C 459.753906 348.324219 460.960938 348.886719 462.195312 349.386719 C 463.429688 349.886719 464.683594 350.324219 465.960938 350.699219 Z M 465.960938 350.699219 " fill-opacity="1" fill-rule="nonzero"/><path fill="#fcd34d" d="M 235.34375 500.902344 C 236.375 500.347656 237.417969 499.820312 238.472656 499.324219 C 239.53125 498.828125 240.605469 498.363281 241.6875 497.925781 C 242.773438 497.492188 243.867188 497.085938 244.976562 496.710938 C 246.082031 496.339844 247.199219 495.996094 248.328125 495.6875 C 249.453125 495.378906 250.589844 495.101562 251.730469 494.855469 C 252.875 494.609375 254.023438 494.398438 255.179688 494.21875 C 256.332031 494.035156 257.492188 493.890625 258.65625 493.777344 C 259.816406 493.660156 260.984375 493.582031 262.152344 493.53125 C 263.316406 493.484375 264.488281 493.46875 265.65625 493.488281 C 266.824219 493.507812 267.992188 493.558594 269.15625 493.644531 C 270.320312 493.726562 271.484375 493.847656 272.644531 493.996094 C 273.800781 494.148438 274.957031 494.332031 276.105469 494.546875 C 277.253906 494.765625 278.394531 495.011719 279.527344 495.292969 C 280.664062 495.578125 281.789062 495.890625 282.902344 496.234375 C 284.019531 496.582031 285.125 496.957031 286.222656 497.367188 C 287.316406 497.773438 288.398438 498.210938 289.46875 498.683594 C 290.539062 499.152344 291.59375 499.652344 292.636719 500.179688 C 293.679688 500.710938 294.703125 501.269531 295.714844 501.859375 C 296.726562 502.445312 297.71875 503.0625 298.691406 503.707031 C 299.667969 504.351562 300.621094 505.023438 301.558594 505.722656 C 302.496094 506.421875 303.414062 507.144531 304.308594 507.898438 C 305.203125 508.648438 306.078125 509.421875 306.929688 510.222656 C 307.78125 511.023438 308.609375 511.847656 309.414062 512.695312 C 310.21875 513.542969 310.996094 514.414062 311.753906 515.304688 C 312.507812 516.199219 313.238281 517.109375 313.941406 518.042969 C 314.644531 518.976562 315.320312 519.929688 315.96875 520.902344 C 316.617188 521.875 317.238281 522.863281 317.832031 523.871094 C 318.425781 524.878906 318.988281 525.902344 319.523438 526.941406 C 320.058594 527.980469 320.566406 529.03125 321.039062 530.101562 C 321.515625 531.167969 321.957031 532.25 322.371094 533.34375 C 322.785156 534.4375 323.167969 535.539062 323.519531 536.65625 C 323.871094 537.769531 324.1875 538.894531 324.476562 540.027344 C 324.761719 541.160156 325.015625 542.300781 325.238281 543.449219 C 325.460938 544.59375 325.652344 545.75 325.808594 546.90625 C 325.964844 548.066406 326.085938 549.226562 326.179688 550.390625 C 326.269531 551.558594 326.324219 552.722656 326.351562 553.894531 C 326.375 555.0625 326.367188 556.230469 326.324219 557.398438 C 326.28125 558.566406 326.207031 559.730469 326.097656 560.894531 C 325.988281 562.058594 325.847656 563.21875 325.671875 564.375 C 325.5 565.53125 325.292969 566.679688 325.050781 567.824219 C 324.8125 568.96875 324.539062 570.105469 324.238281 571.234375 C 323.933594 572.363281 323.597656 573.480469 323.230469 574.589844 C 322.859375 575.699219 322.460938 576.796875 322.03125 577.886719 C 321.601562 578.972656 321.140625 580.046875 320.648438 581.105469 C 320.15625 582.167969 319.636719 583.210938 319.085938 584.242188 C 318.535156 585.273438 317.957031 586.289062 317.347656 587.285156 C 316.738281 588.285156 316.101562 589.265625 315.441406 590.226562 C 314.777344 591.1875 314.085938 592.128906 313.367188 593.054688 C 312.648438 593.976562 311.90625 594.878906 311.136719 595.757812 C 310.367188 596.636719 309.574219 597.496094 308.757812 598.332031 C 307.941406 599.164062 307.101562 599.976562 306.238281 600.765625 C 305.371094 601.550781 304.488281 602.316406 303.582031 603.050781 C 302.671875 603.789062 301.746094 604.5 300.800781 605.183594 C 299.851562 605.867188 298.886719 606.523438 297.902344 607.15625 C 296.917969 607.785156 295.914062 608.386719 294.894531 608.957031 C 293.875 609.53125 292.84375 610.074219 291.792969 610.585938 C 290.742188 611.101562 289.679688 611.585938 288.601562 612.039062 C 287.523438 612.492188 286.4375 612.914062 285.335938 613.304688 C 284.234375 613.695312 283.121094 614.054688 282 614.382812 C 280.878906 614.710938 279.75 615.007812 278.609375 615.273438 C 277.472656 615.535156 276.328125 615.769531 275.175781 615.96875 C 274.023438 616.164062 272.867188 616.332031 271.707031 616.464844 C 270.546875 616.597656 269.382812 616.699219 268.214844 616.765625 C 267.046875 616.832031 265.878906 616.867188 264.710938 616.867188 C 258.652344 616.851562 252.71875 615.976562 246.917969 614.234375 C 245.46875 613.796875 244.039062 613.308594 242.625 612.765625 C 241.210938 612.226562 239.820312 611.632812 238.453125 610.988281 C 237.085938 610.34375 235.742188 609.652344 234.421875 608.910156 C 233.105469 608.167969 231.816406 607.375 230.558594 606.539062 C 229.296875 605.703125 228.070312 604.820312 226.875 603.890625 C 225.679688 602.964844 224.519531 601.992188 223.398438 600.980469 C 222.273438 599.964844 221.191406 598.914062 220.144531 597.820312 C 219.097656 596.726562 218.09375 595.597656 217.132812 594.429688 C 216.167969 593.265625 215.25 592.0625 214.375 590.828125 C 213.5 589.59375 212.671875 588.332031 211.890625 587.035156 C 211.109375 585.738281 210.375 584.417969 209.691406 583.070312 C 209.007812 581.71875 208.375 580.347656 207.789062 578.953125 C 207.207031 577.554688 206.675781 576.140625 206.195312 574.707031 C 205.71875 573.269531 205.292969 571.820312 204.917969 570.355469 C 204.546875 568.886719 204.230469 567.410156 203.964844 565.917969 C 203.699219 564.429688 203.492188 562.933594 203.339844 561.425781 C 203.183594 559.921875 203.085938 558.414062 203.042969 556.902344 C 203 555.390625 203.015625 553.878906 203.082031 552.367188 C 203.152344 550.855469 203.277344 549.347656 203.453125 547.847656 C 203.632812 546.34375 203.867188 544.851562 204.15625 543.367188 C 204.445312 541.882812 204.789062 540.410156 205.1875 538.949219 C 205.585938 537.488281 206.035156 536.046875 206.539062 534.621094 C 207.042969 533.191406 207.597656 531.789062 208.207031 530.402344 C 208.8125 529.015625 209.46875 527.65625 210.175781 526.316406 C 210.882812 524.980469 211.640625 523.671875 212.441406 522.386719 C 213.246094 521.105469 214.09375 519.855469 214.992188 518.636719 C 215.886719 517.417969 216.824219 516.234375 217.808594 515.082031 C 218.789062 513.933594 219.816406 512.820312 220.878906 511.746094 C 221.945312 510.671875 223.046875 509.636719 224.1875 508.644531 C 225.328125 507.648438 226.503906 506.699219 227.714844 505.792969 C 228.921875 504.882812 230.164062 504.023438 231.4375 503.207031 C 232.714844 502.390625 234.015625 501.625 235.34375 500.902344 Z M 224.414062 576.882812 C 225.125 578.199219 225.898438 579.476562 226.734375 580.71875 C 227.574219 581.960938 228.46875 583.15625 229.421875 584.308594 C 230.378906 585.460938 231.386719 586.566406 232.449219 587.621094 C 233.511719 588.671875 234.625 589.671875 235.785156 590.617188 C 236.945312 591.5625 238.148438 592.445312 239.398438 593.273438 C 240.644531 594.097656 241.929688 594.863281 243.253906 595.5625 C 244.578125 596.261719 245.929688 596.898438 247.316406 597.464844 C 248.699219 598.03125 250.109375 598.527344 251.542969 598.957031 C 252.976562 599.386719 254.429688 599.742188 255.898438 600.03125 C 257.367188 600.316406 258.847656 600.53125 260.335938 600.671875 C 261.824219 600.8125 263.320312 600.878906 264.816406 600.875 C 266.3125 600.867188 267.804688 600.789062 269.292969 600.636719 C 270.78125 600.484375 272.261719 600.257812 273.726562 599.960938 C 275.195312 599.664062 276.640625 599.296875 278.074219 598.855469 C 279.503906 598.417969 280.910156 597.90625 282.289062 597.328125 C 283.671875 596.753906 285.019531 596.109375 286.335938 595.398438 C 287.652344 594.6875 288.925781 593.914062 290.164062 593.074219 C 291.402344 592.238281 292.597656 591.34375 293.746094 590.390625 C 294.898438 589.4375 296 588.429688 297.050781 587.367188 C 298.101562 586.304688 299.101562 585.195312 300.042969 584.035156 C 300.984375 582.875 301.871094 581.671875 302.695312 580.425781 C 303.519531 579.179688 304.28125 577.894531 304.980469 576.574219 C 305.679688 575.253906 306.3125 573.902344 306.878906 572.519531 C 307.445312 571.136719 307.941406 569.730469 308.371094 568.296875 C 308.800781 566.867188 309.15625 565.417969 309.445312 563.949219 C 309.730469 562.484375 309.945312 561.003906 310.085938 559.515625 C 310.226562 558.03125 310.296875 556.539062 310.292969 555.042969 C 310.285156 553.550781 310.210938 552.058594 310.058594 550.570312 C 309.90625 549.085938 309.683594 547.609375 309.390625 546.144531 C 309.09375 544.679688 308.726562 543.230469 308.289062 541.800781 C 307.851562 540.375 307.347656 538.96875 306.773438 537.589844 C 306.199219 536.210938 305.558594 534.863281 304.851562 533.546875 C 304.140625 532.226562 303.367188 530.949219 302.53125 529.707031 C 301.699219 528.464844 300.804688 527.269531 299.851562 526.113281 C 298.898438 524.960938 297.890625 523.855469 296.828125 522.800781 C 295.765625 521.746094 294.65625 520.746094 293.496094 519.800781 C 292.335938 518.855469 291.132812 517.96875 289.886719 517.140625 C 288.640625 516.316406 287.355469 515.550781 286.035156 514.851562 C 284.714844 514.148438 283.359375 513.515625 281.976562 512.945312 C 280.59375 512.378906 279.183594 511.878906 277.75 511.449219 C 276.316406 511.019531 274.867188 510.660156 273.398438 510.375 C 271.929688 510.085938 270.449219 509.871094 268.960938 509.730469 C 267.472656 509.589844 265.980469 509.519531 264.484375 509.523438 C 262.988281 509.53125 261.496094 509.609375 260.007812 509.757812 C 258.519531 509.910156 257.039062 510.136719 255.574219 510.429688 C 254.109375 510.726562 252.660156 511.097656 251.230469 511.535156 C 249.796875 511.972656 248.394531 512.480469 247.011719 513.058594 C 245.632812 513.636719 244.285156 514.28125 242.964844 514.988281 C 241.648438 515.699219 240.371094 516.472656 239.128906 517.308594 C 237.886719 518.140625 236.691406 519.035156 235.535156 519.988281 C 234.382812 520.941406 233.277344 521.949219 232.222656 523.011719 C 231.171875 524.074219 230.171875 525.183594 229.222656 526.34375 C 228.277344 527.503906 227.394531 528.707031 226.566406 529.953125 C 225.738281 531.199219 224.972656 532.484375 224.273438 533.808594 C 223.574219 535.128906 222.9375 536.480469 222.371094 537.867188 C 221.800781 539.25 221.304688 540.660156 220.875 542.09375 C 220.445312 543.527344 220.085938 544.976562 219.796875 546.445312 C 219.511719 547.914062 219.296875 549.394531 219.15625 550.882812 C 219.011719 552.371094 218.945312 553.867188 218.949219 555.363281 C 218.953125 556.859375 219.03125 558.351562 219.183594 559.839844 C 219.335938 561.328125 219.558594 562.804688 219.855469 564.273438 C 220.152344 565.738281 220.519531 567.1875 220.960938 568.617188 C 221.398438 570.050781 221.90625 571.453125 222.484375 572.835938 C 223.058594 574.214844 223.703125 575.566406 224.414062 576.882812 Z M 224.414062 576.882812 " fill-opacity="1" fill-rule="nonzero"/></svg>