<svg width="118" height="119" viewBox="0 0 118 119" fill="none" xmlns="http://www.w3.org/2000/svg">
<path d="M66.276 56.196C72.45 74.718 62.3668 88.3273 36.666 86.058" stroke="url(#paint0_linear_102_66)" stroke-width="3.024" stroke-linecap="round"/>
<mask id="path-2-inside-1_102_66" fill="white">
<path fill-rule="evenodd" clip-rule="evenodd" d="M93.0481 69.0538C98.6497 63.6486 102.06 56.489 102.06 48.636C102.06 31.7957 86.3774 18.144 67.032 18.144C53.8526 18.144 42.3733 24.4801 36.3945 33.8438C36.1581 35.3845 36.036 36.9576 36.036 38.556C36.036 41.3321 36.4043 44.0318 37.0999 46.6183C38.3001 34.0048 50.6425 23.144 67.032 23.144C84.2897 23.144 97.06 35.1858 97.06 48.636C97.06 59.7254 88.3792 69.8574 75.6599 73.0725C81.935 72.9574 87.8441 71.5173 93.0481 69.0538Z"/>
</mask>
<path fill-rule="evenodd" clip-rule="evenodd" d="M93.0481 69.0538C98.6497 63.6486 102.06 56.489 102.06 48.636C102.06 31.7957 86.3774 18.144 67.032 18.144C53.8526 18.144 42.3733 24.4801 36.3945 33.8438C36.1581 35.3845 36.036 36.9576 36.036 38.556C36.036 41.3321 36.4043 44.0318 37.0999 46.6183C38.3001 34.0048 50.6425 23.144 67.032 23.144C84.2897 23.144 97.06 35.1858 97.06 48.636C97.06 59.7254 88.3792 69.8574 75.6599 73.0725C81.935 72.9574 87.8441 71.5173 93.0481 69.0538Z" fill="url(#paint1_radial_102_66)"/>
<path d="M93.0481 69.0538L94.9888 73.1537L95.6619 72.8351L96.1977 72.318L93.0481 69.0538ZM36.3945 33.8438L32.5713 31.4027L32.0561 32.2097L31.9109 33.156L36.3945 33.8438ZM37.0999 46.6183L32.7195 47.7962L41.6155 47.048L37.0999 46.6183ZM75.6599 73.0725L74.5482 68.6749L75.7431 77.6078L75.6599 73.0725ZM96.1977 72.318C102.581 66.159 106.596 57.8584 106.596 48.636H97.524C97.524 55.1195 94.7189 61.1382 89.8984 65.7897L96.1977 72.318ZM106.596 48.636C106.596 28.7203 88.2714 13.608 67.032 13.608V22.68C84.4834 22.68 97.524 34.8712 97.524 48.636H106.596ZM67.032 13.608C52.4392 13.608 39.4536 20.6241 32.5713 31.4027L40.2176 36.2849C45.293 28.336 55.2661 22.68 67.032 22.68V13.608ZM40.572 38.556C40.572 37.1891 40.6764 35.846 40.878 34.5317L31.9109 33.156C31.6398 34.9231 31.5 36.7261 31.5 38.556H40.572ZM41.4803 45.4403C40.8865 43.2323 40.572 40.9286 40.572 38.556H31.5C31.5 41.7357 31.9222 44.8312 32.7195 47.7962L41.4803 45.4403ZM67.032 18.608C48.7739 18.608 34.048 30.8067 32.5843 46.1886L41.6155 47.048C42.5523 37.2028 52.511 27.68 67.032 27.68V18.608ZM101.596 48.636C101.596 32.1396 86.2172 18.608 67.032 18.608V27.68C82.3622 27.68 92.524 38.232 92.524 48.636H101.596ZM76.7715 77.4702C91.0856 73.8519 101.596 62.2053 101.596 48.636H92.524C92.524 57.2455 85.6729 65.8628 74.5482 68.6749L76.7715 77.4702ZM91.1073 64.954C86.485 67.142 81.2092 68.434 75.5767 68.5373L75.7431 77.6078C82.6608 77.4809 89.2031 75.8925 94.9888 73.1537L91.1073 64.954Z" fill="#5E430D" mask="url(#path-2-inside-1_102_66)"/>
<path d="M37.044 34.902C33.0177 42.4705 32.5286 52.1854 37.044 86.184" stroke="url(#paint2_linear_102_66)" stroke-width="4.536"/>
<path d="M35.532 38.304C37.4734 34.2179 38.5225 32.4033 40.32 29.988" stroke="url(#paint3_linear_102_66)" stroke-width="4.536" stroke-linecap="round"/>
<path d="M66.528 57.078C68.6234 64.4347 69.3883 70.1616 66.528 96.894" stroke="url(#paint4_linear_102_66)" stroke-width="3.024" stroke-linecap="round"/>
<path d="M100.8 55.944C90.5383 69.8467 88.3007 81.7871 88.7597 97.02" stroke="url(#paint5_linear_102_66)" stroke-width="3.024" stroke-linecap="round"/>
<path d="M87.4904 97.0723C87.5193 97.9069 88.2192 98.56 89.0538 98.5311C89.8883 98.5022 90.5415 97.8023 90.5126 96.9677L87.4904 97.0723ZM90.5126 96.9677C89.9708 81.3105 90.0179 71.7106 91.9739 50.0319L88.9621 49.7601C86.9945 71.5681 86.9444 81.2937 87.4904 97.0723L90.5126 96.9677Z" fill="url(#paint6_linear_102_66)"/>
<defs>
<linearGradient id="paint0_linear_102_66" x1="65.5" y1="57.5" x2="52.3525" y2="86.3054" gradientUnits="userSpaceOnUse">
<stop stop-color="#AA8239" stop-opacity="0.2"/>
<stop offset="1" stop-color="#AA8239"/>
</linearGradient>
<radialGradient id="paint1_radial_102_66" cx="0" cy="0" r="1" gradientUnits="userSpaceOnUse" gradientTransform="translate(39.0455 36.2569) rotate(10.242) scale(53.1489 69.1194)">
<stop offset="0.15625" stop-color="#624710"/>
<stop offset="1" stop-color="#AA8239" stop-opacity="0.4"/>
</radialGradient>
<linearGradient id="paint2_linear_102_66" x1="35.4411" y1="34.902" x2="35.4411" y2="86.184" gradientUnits="userSpaceOnUse">
<stop stop-color="#5E430D"/>
<stop offset="0.26636" stop-color="#D9D9D9"/>
<stop offset="1" stop-color="#5E430D" stop-opacity="0.8"/>
</linearGradient>
<linearGradient id="paint3_linear_102_66" x1="36.5" y1="38.5" x2="42.5" y2="33" gradientUnits="userSpaceOnUse">
<stop stop-color="#958668"/>
<stop offset="1" stop-color="#5E430D" stop-opacity="0"/>
</linearGradient>
<linearGradient id="paint4_linear_102_66" x1="67.4627" y1="57.078" x2="67.4627" y2="96.894" gradientUnits="userSpaceOnUse">
<stop stop-color="#5E430D" stop-opacity="0.4"/>
<stop offset="1" stop-color="#AA8239" stop-opacity="0.4"/>
</linearGradient>
<linearGradient id="paint5_linear_102_66" x1="94.752" y1="55.944" x2="94.752" y2="97.02" gradientUnits="userSpaceOnUse">
<stop stop-color="#5E430D" stop-opacity="0"/>
<stop offset="1" stop-color="#AA8239"/>
</linearGradient>
<linearGradient id="paint6_linear_102_66" x1="89.586" y1="49.896" x2="89.586" y2="97.02" gradientUnits="userSpaceOnUse">
<stop stop-color="#5E430D" stop-opacity="0"/>
<stop offset="0.697917" stop-color="#D9D9D9"/>
</linearGradient>
</defs>
</svg>
