<svg width="488" height="62" viewBox="0 0 488 62" fill="none" xmlns="http://www.w3.org/2000/svg">
<path d="M0.283337 47.9158V1.37032H5.64697V18.5521H6.10152C6.49546 17.9461 7.04091 17.1733 7.73788 16.234C8.45 15.2794 9.46515 14.4309 10.7833 13.6885C12.1167 12.9309 13.9197 12.5521 16.1924 12.5521C19.1318 12.5521 21.7227 13.287 23.9652 14.7567C26.2076 16.2264 27.9576 18.3097 29.2152 21.0067C30.4727 23.7036 31.1015 26.8855 31.1015 30.5521C31.1015 34.2491 30.4727 37.4537 29.2152 40.1658C27.9576 42.8627 26.2152 44.9537 23.9879 46.4385C21.7606 47.9082 19.1924 48.643 16.2833 48.643C14.0409 48.643 12.2455 48.2718 10.897 47.5294C9.54849 46.7718 8.51061 45.9158 7.78334 44.9612C7.05606 43.9915 6.49546 43.1885 6.10152 42.5521H5.46515V47.9158H0.283337ZM5.55606 30.4612C5.55606 33.0976 5.94243 35.4233 6.71515 37.4385C7.48788 39.4385 8.61667 41.0067 10.1015 42.143C11.5864 43.2643 13.4045 43.8249 15.5561 43.8249C17.7985 43.8249 19.6697 43.234 21.1697 42.0521C22.6849 40.8552 23.8212 39.2491 24.5788 37.234C25.3515 35.2036 25.7379 32.9461 25.7379 30.4612C25.7379 28.0067 25.3591 25.7946 24.6015 23.8249C23.8591 21.84 22.7303 20.2718 21.2152 19.1203C19.7152 17.9536 17.8288 17.3703 15.5561 17.3703C13.3742 17.3703 11.5409 17.9233 10.0561 19.0294C8.57122 20.1203 7.45 21.6506 6.69243 23.6203C5.93485 25.5749 5.55606 27.8552 5.55606 30.4612ZM53.397 61.734C50.8061 61.734 48.5788 61.4006 46.7152 60.734C44.8515 60.0824 43.2985 59.2188 42.0561 58.143C40.8288 57.0824 39.8515 55.9461 39.1242 54.734L43.397 51.734C43.8818 52.3703 44.4955 53.0976 45.2379 53.9158C45.9803 54.7491 46.9955 55.4688 48.2833 56.0749C49.5864 56.6961 51.2909 57.0067 53.397 57.0067C56.2152 57.0067 58.5409 56.3249 60.3742 54.9612C62.2076 53.5976 63.1242 51.4612 63.1242 48.5521V41.4612H62.6697C62.2758 42.0976 61.7152 42.8855 60.9879 43.8249C60.2758 44.7491 59.2455 45.5749 57.897 46.3021C56.5636 47.0143 54.7606 47.3703 52.4879 47.3703C49.6697 47.3703 47.1394 46.7037 44.897 45.3703C42.6697 44.037 40.9045 42.0976 39.6015 39.5521C38.3136 37.0067 37.6697 33.9158 37.6697 30.2794C37.6697 26.7037 38.2985 23.59 39.5561 20.9385C40.8136 18.2718 42.5636 16.2112 44.8061 14.7567C47.0485 13.287 49.6394 12.5521 52.5788 12.5521C54.8515 12.5521 56.6545 12.9309 57.9879 13.6885C59.3364 14.4309 60.3667 15.2794 61.0788 16.234C61.8061 17.1733 62.3667 17.9461 62.7606 18.5521H63.3061V13.0067H68.4879V48.9158C68.4879 51.9158 67.8061 54.3552 66.4424 56.234C65.0939 58.1279 63.2758 59.5143 60.9879 60.393C58.7152 61.287 56.1849 61.734 53.397 61.734ZM53.2152 42.5521C55.3667 42.5521 57.1849 42.0597 58.6697 41.0749C60.1545 40.09 61.2833 38.6733 62.0561 36.8249C62.8288 34.9764 63.2152 32.7643 63.2152 30.1885C63.2152 27.6733 62.8364 25.4537 62.0788 23.5294C61.3212 21.6052 60.2 20.0976 58.7152 19.0067C57.2303 17.9158 55.397 17.3703 53.2152 17.3703C50.9424 17.3703 49.0485 17.9461 47.5333 19.0976C46.0333 20.2491 44.9045 21.7946 44.147 23.734C43.4045 25.6733 43.0333 27.8249 43.0333 30.1885C43.0333 32.6127 43.4121 34.7567 44.1697 36.6203C44.9424 38.4688 46.0788 39.9233 47.5788 40.984C49.0939 42.0294 50.9727 42.5521 53.2152 42.5521ZM98.3061 25.4612V30.4612H77.9424V25.4612H98.3061ZM122.38 48.643C119.016 48.643 116.115 47.9006 113.675 46.4158C111.251 44.9158 109.38 42.8249 108.062 40.143C106.759 37.4461 106.107 34.3097 106.107 30.734C106.107 27.1582 106.759 24.0067 108.062 21.2794C109.38 18.537 111.213 16.4006 113.562 14.8703C115.925 13.3249 118.683 12.5521 121.834 12.5521C123.653 12.5521 125.448 12.8552 127.221 13.4612C128.994 14.0673 130.607 15.0521 132.062 16.4158C133.516 17.7643 134.675 19.5521 135.539 21.7794C136.403 24.0067 136.834 26.7491 136.834 30.0067V32.2794H109.925V27.643H131.38C131.38 25.6733 130.986 23.9158 130.198 22.3703C129.425 20.8249 128.319 19.6052 126.88 18.7112C125.456 17.8173 123.774 17.3703 121.834 17.3703C119.698 17.3703 117.85 17.9006 116.289 18.9612C114.744 20.0067 113.554 21.3703 112.721 23.0521C111.888 24.734 111.471 26.537 111.471 28.4612V31.5521C111.471 34.1885 111.925 36.4233 112.834 38.2567C113.759 40.0749 115.039 41.4612 116.675 42.4158C118.312 43.3552 120.213 43.8249 122.38 43.8249C123.789 43.8249 125.062 43.6279 126.198 43.234C127.35 42.8249 128.342 42.2188 129.175 41.4158C130.009 40.5976 130.653 39.5824 131.107 38.3703L136.289 39.8249C135.744 41.5824 134.827 43.1279 133.539 44.4612C132.251 45.7794 130.66 46.8097 128.766 47.5521C126.872 48.2794 124.744 48.643 122.38 48.643ZM144.994 47.9158V13.0067H150.175V18.4612H150.63C151.357 16.5976 152.531 15.1506 154.153 14.1203C155.774 13.0749 157.721 12.5521 159.994 12.5521C162.297 12.5521 164.213 13.0749 165.744 14.1203C167.289 15.1506 168.494 16.5976 169.357 18.4612H169.721C170.615 16.6582 171.956 15.2264 173.744 14.1658C175.531 13.09 177.675 12.5521 180.175 12.5521C183.297 12.5521 185.85 13.5294 187.834 15.484C189.819 17.4233 190.812 20.4461 190.812 24.5521V47.9158H185.448V24.5521C185.448 21.9764 184.744 20.1355 183.334 19.0294C181.925 17.9233 180.266 17.3703 178.357 17.3703C175.903 17.3703 174.001 18.1127 172.653 19.5976C171.304 21.0673 170.63 22.9309 170.63 25.1885V47.9158H165.175V24.0067C165.175 22.0218 164.531 20.4233 163.244 19.2112C161.956 17.984 160.297 17.3703 158.266 17.3703C156.872 17.3703 155.569 17.7415 154.357 18.484C153.16 19.2264 152.191 20.2567 151.448 21.5749C150.721 22.8779 150.357 24.3855 150.357 26.0976V47.9158H144.994ZM215.255 48.643C211.891 48.643 208.99 47.9006 206.55 46.4158C204.126 44.9158 202.255 42.8249 200.937 40.143C199.634 37.4461 198.982 34.3097 198.982 30.734C198.982 27.1582 199.634 24.0067 200.937 21.2794C202.255 18.537 204.088 16.4006 206.437 14.8703C208.8 13.3249 211.558 12.5521 214.709 12.5521C216.528 12.5521 218.323 12.8552 220.096 13.4612C221.869 14.0673 223.482 15.0521 224.937 16.4158C226.391 17.7643 227.55 19.5521 228.414 21.7794C229.278 24.0067 229.709 26.7491 229.709 30.0067V32.2794H202.8V27.643H224.255C224.255 25.6733 223.861 23.9158 223.073 22.3703C222.3 20.8249 221.194 19.6052 219.755 18.7112C218.331 17.8173 216.649 17.3703 214.709 17.3703C212.573 17.3703 210.725 17.9006 209.164 18.9612C207.619 20.0067 206.429 21.3703 205.596 23.0521C204.763 24.734 204.346 26.537 204.346 28.4612V31.5521C204.346 34.1885 204.8 36.4233 205.709 38.2567C206.634 40.0749 207.914 41.4612 209.55 42.4158C211.187 43.3552 213.088 43.8249 215.255 43.8249C216.664 43.8249 217.937 43.6279 219.073 43.234C220.225 42.8249 221.217 42.2188 222.05 41.4158C222.884 40.5976 223.528 39.5824 223.982 38.3703L229.164 39.8249C228.619 41.5824 227.702 43.1279 226.414 44.4612C225.126 45.7794 223.535 46.8097 221.641 47.5521C219.747 48.2794 217.619 48.643 215.255 48.643ZM237.869 47.9158V13.0067H243.05V18.2794H243.414C244.05 16.5521 245.202 15.1506 246.869 14.0749C248.535 12.9991 250.414 12.4612 252.505 12.4612C252.899 12.4612 253.391 12.4688 253.982 12.484C254.573 12.4991 255.02 12.5218 255.323 12.5521V18.0067C255.141 17.9612 254.725 17.893 254.073 17.8021C253.437 17.6961 252.763 17.643 252.05 17.643C250.353 17.643 248.838 17.9991 247.505 18.7112C246.187 19.4082 245.141 20.3779 244.369 21.6203C243.611 22.8476 243.232 24.2491 243.232 25.8249V47.9158H237.869ZM271.954 48.734C269.742 48.734 267.734 48.3173 265.931 47.484C264.128 46.6355 262.696 45.4158 261.636 43.8249C260.575 42.2188 260.045 40.2794 260.045 38.0067C260.045 36.0067 260.439 34.3855 261.227 33.143C262.014 31.8855 263.067 30.9006 264.386 30.1885C265.704 29.4764 267.158 28.9461 268.749 28.5976C270.355 28.234 271.969 27.9461 273.59 27.734C275.711 27.4612 277.431 27.2567 278.749 27.1203C280.083 26.9688 281.052 26.7188 281.658 26.3703C282.28 26.0218 282.59 25.4158 282.59 24.5521V24.3703C282.59 22.1279 281.977 20.3855 280.749 19.143C279.537 17.9006 277.696 17.2794 275.227 17.2794C272.666 17.2794 270.658 17.84 269.204 18.9612C267.749 20.0824 266.727 21.2794 266.136 22.5521L261.045 20.734C261.954 18.6127 263.166 16.9612 264.681 15.7794C266.211 14.5824 267.878 13.7491 269.681 13.2794C271.499 12.7946 273.287 12.5521 275.045 12.5521C276.166 12.5521 277.454 12.6885 278.908 12.9612C280.378 13.2188 281.795 13.7567 283.158 14.5749C284.537 15.393 285.681 16.6279 286.59 18.2794C287.499 19.9309 287.954 22.143 287.954 24.9158V47.9158H282.59V43.1885H282.317C281.954 43.9461 281.348 44.7567 280.499 45.6203C279.651 46.484 278.522 47.2188 277.113 47.8249C275.704 48.4309 273.984 48.734 271.954 48.734ZM272.772 43.9158C274.893 43.9158 276.681 43.4991 278.136 42.6658C279.605 41.8324 280.711 40.7567 281.454 39.4385C282.211 38.1203 282.59 36.734 282.59 35.2794V30.3703C282.363 30.643 281.863 30.893 281.09 31.1203C280.333 31.3324 279.454 31.5218 278.454 31.6885C277.469 31.84 276.507 31.9764 275.567 32.0976C274.643 32.2037 273.893 32.2946 273.317 32.3703C271.923 32.5521 270.62 32.8476 269.408 33.2567C268.211 33.6506 267.242 34.2491 266.499 35.0521C265.772 35.84 265.408 36.9158 265.408 38.2794C265.408 40.143 266.098 41.5521 267.477 42.5067C268.87 43.4461 270.636 43.9158 272.772 43.9158ZM303.107 1.37032V47.9158H297.744V1.37032H303.107ZM326.113 48.643C323.204 48.643 320.636 47.9082 318.408 46.4385C316.181 44.9537 314.439 42.8627 313.181 40.1658C311.923 37.4537 311.295 34.2491 311.295 30.5521C311.295 26.8855 311.923 23.7036 313.181 21.0067C314.439 18.3097 316.189 16.2264 318.431 14.7567C320.673 13.287 323.264 12.5521 326.204 12.5521C328.477 12.5521 330.272 12.9309 331.59 13.6885C332.923 14.4309 333.939 15.2794 334.636 16.234C335.348 17.1733 335.901 17.9461 336.295 18.5521H336.749V1.37032H342.113V47.9158H336.931V42.5521H336.295C335.901 43.1885 335.34 43.9915 334.613 44.9612C333.886 45.9158 332.848 46.7718 331.499 47.5294C330.151 48.2718 328.355 48.643 326.113 48.643ZM326.84 43.8249C328.992 43.8249 330.81 43.2643 332.295 42.143C333.78 41.0067 334.908 39.4385 335.681 37.4385C336.454 35.4233 336.84 33.0976 336.84 30.4612C336.84 27.8552 336.461 25.5749 335.704 23.6203C334.946 21.6506 333.825 20.1203 332.34 19.0294C330.855 17.9233 329.022 17.3703 326.84 17.3703C324.567 17.3703 322.673 17.9536 321.158 19.1203C319.658 20.2718 318.53 21.84 317.772 23.8249C317.03 25.7946 316.658 28.0067 316.658 30.4612C316.658 32.9461 317.037 35.2036 317.795 37.234C318.567 39.2491 319.704 40.8552 321.204 42.0521C322.719 43.234 324.598 43.8249 326.84 43.8249ZM372.681 25.4612V30.4612H352.317V25.4612H372.681ZM382.045 47.9158L402.863 6.73395V6.37032H378.863V1.37032H408.681V6.64304L387.954 47.9158H382.045ZM431.334 48.5521C427.91 48.5521 424.994 47.6203 422.584 45.7567C420.175 43.8779 418.334 41.1582 417.062 37.5976C415.789 34.0218 415.153 29.7036 415.153 24.643C415.153 19.6127 415.789 15.3173 417.062 11.7567C418.35 8.18092 420.198 5.45365 422.607 3.57486C425.031 1.68092 427.941 0.733952 431.334 0.733952C434.728 0.733952 437.63 1.68092 440.039 3.57486C442.463 5.45365 444.312 8.18092 445.584 11.7567C446.872 15.3173 447.516 19.6127 447.516 24.643C447.516 29.7036 446.88 34.0218 445.607 37.5976C444.334 41.1582 442.494 43.8779 440.084 45.7567C437.675 47.6203 434.759 48.5521 431.334 48.5521ZM431.334 43.5521C434.728 43.5521 437.365 41.9158 439.244 38.643C441.122 35.3703 442.062 30.7036 442.062 24.643C442.062 20.6127 441.63 17.1809 440.766 14.3476C439.918 11.5143 438.691 9.35516 437.084 7.87032C435.494 6.38547 433.577 5.64304 431.334 5.64304C427.971 5.64304 425.342 7.30213 423.448 10.6203C421.554 13.9233 420.607 18.5976 420.607 24.643C420.607 28.6733 421.031 32.0976 421.88 34.9158C422.728 37.734 423.948 39.8779 425.539 41.3476C427.145 42.8173 429.077 43.5521 431.334 43.5521ZM471.334 48.5521C467.91 48.5521 464.994 47.6203 462.584 45.7567C460.175 43.8779 458.334 41.1582 457.062 37.5976C455.789 34.0218 455.153 29.7036 455.153 24.643C455.153 19.6127 455.789 15.3173 457.062 11.7567C458.35 8.18092 460.198 5.45365 462.607 3.57486C465.031 1.68092 467.941 0.733952 471.334 0.733952C474.728 0.733952 477.63 1.68092 480.039 3.57486C482.463 5.45365 484.312 8.18092 485.584 11.7567C486.872 15.3173 487.516 19.6127 487.516 24.643C487.516 29.7036 486.88 34.0218 485.607 37.5976C484.334 41.1582 482.494 43.8779 480.084 45.7567C477.675 47.6203 474.759 48.5521 471.334 48.5521ZM471.334 43.5521C474.728 43.5521 477.365 41.9158 479.244 38.643C481.122 35.3703 482.062 30.7036 482.062 24.643C482.062 20.6127 481.63 17.1809 480.766 14.3476C479.918 11.5143 478.691 9.35516 477.084 7.87032C475.494 6.38547 473.577 5.64304 471.334 5.64304C467.971 5.64304 465.342 7.30213 463.448 10.6203C461.554 13.9233 460.607 18.5976 460.607 24.643C460.607 28.6733 461.031 32.0976 461.88 34.9158C462.728 37.734 463.948 39.8779 465.539 41.3476C467.145 42.8173 469.077 43.5521 471.334 43.5521Z" fill="black"/>
</svg>
